<svg width="14" height="12" viewBox="0 0 14 12" fill="none" xmlns="http://www.w3.org/2000/svg">
<path d="M12.5536 5.10679V3.07143C12.5536 1.86339 11.6616 0.875 10.5714 0.875H7.92857C7.41982 0.875 6.95732 1.09464 6.60714 1.44607C6.25696 1.09464 5.79446 0.875 5.28571 0.875H2.64286C1.55268 0.875 0.660714 1.86339 0.660714 3.07143V5.10679C0.257679 5.50946 0 6.08786 0 6.73214V10.3929C0 10.7955 0.297321 11.125 0.660714 11.125C1.02411 11.125 1.32143 10.7955 1.32143 10.3929V9.66071H11.8929V10.3929C11.8929 10.7955 12.1902 11.125 12.5536 11.125C12.917 11.125 13.2143 10.7955 13.2143 10.3929V6.73214C13.2143 6.08786 12.9566 5.50946 12.5536 5.10679ZM7.92857 2.33929H10.5714C10.9348 2.33929 11.2321 2.66875 11.2321 3.07143V4.53571H7.26786V3.07143C7.26786 2.66875 7.56518 2.33929 7.92857 2.33929ZM1.98214 3.07143C1.98214 2.66875 2.27946 2.33929 2.64286 2.33929H5.28571C5.64911 2.33929 5.94643 2.66875 5.94643 3.07143V4.53571H1.98214V3.07143ZM1.32143 8.19643V6.73214C1.32143 6.32946 1.61875 6 1.98214 6H11.2321C11.5955 6 11.8929 6.32946 11.8929 6.73214V8.19643H1.32143Z" fill="#989898"/>
</svg>
