<svg width="45" height="45" viewBox="0 0 45 45" fill="none" xmlns="http://www.w3.org/2000/svg">
<path d="M23.9062 26.7188H11.25C6.58969 26.7188 2.8125 30.4966 2.8125 35.1562V42.1875H32.3438V35.1562C32.3438 30.4966 28.5659 26.7188 23.9062 26.7188Z" fill="#005B8A"/>
<path d="M32.3438 42.5391H2.8125C2.61844 42.5391 2.46094 42.3816 2.46094 42.1875V35.1562C2.46094 30.3096 6.40336 26.3672 11.25 26.3672H23.9062C28.7529 26.3672 32.6953 30.3096 32.6953 35.1562V42.1875C32.6953 42.3816 32.5378 42.5391 32.3438 42.5391ZM3.16406 41.8359H31.9922V35.1562C31.9922 30.6977 28.3648 27.0703 23.9062 27.0703H11.25C6.79148 27.0703 3.16406 30.6977 3.16406 35.1562V41.8359Z" fill="#212A41"/>
<path d="M8.4375 35.1562V42.1875H37.9688V35.1562C37.9688 30.4966 34.1909 26.7188 29.5312 26.7188H16.875C12.2147 26.7188 8.4375 30.4966 8.4375 35.1562Z" fill="#E0E0E0"/>
<path d="M37.9688 42.5391H8.4375C8.24344 42.5391 8.08594 42.3816 8.08594 42.1875V35.1562C8.08594 30.3096 12.0284 26.3672 16.875 26.3672H29.5312C34.3779 26.3672 38.3203 30.3096 38.3203 35.1562V42.1875C38.3203 42.3816 38.1628 42.5391 37.9688 42.5391ZM8.78906 41.8359H37.6172V35.1562C37.6172 30.6977 33.9898 27.0703 29.5312 27.0703H16.875C12.4165 27.0703 8.78906 30.6977 8.78906 35.1562V41.8359Z" fill="#212A41"/>
<path d="M28.8281 15.4688C29.9931 15.4688 30.9375 14.5244 30.9375 13.3594C30.9375 12.1944 29.9931 11.25 28.8281 11.25C27.6631 11.25 26.7188 12.1944 26.7188 13.3594C26.7188 14.5244 27.6631 15.4688 28.8281 15.4688Z" fill="#E8D2A8"/>
<path d="M28.8281 15.8203C27.4711 15.8203 26.3672 14.7164 26.3672 13.3594C26.3672 12.0023 27.4711 10.8984 28.8281 10.8984C30.1852 10.8984 31.2891 12.0023 31.2891 13.3594C31.2891 14.7164 30.1852 15.8203 28.8281 15.8203ZM28.8281 11.6016C27.8592 11.6016 27.0703 12.3905 27.0703 13.3594C27.0703 14.3283 27.8592 15.1172 28.8281 15.1172C29.797 15.1172 30.5859 14.3283 30.5859 13.3594C30.5859 12.3905 29.797 11.6016 28.8281 11.6016Z" fill="#212A41"/>
<path d="M11.9531 7.03125V11.25C10.788 11.25 9.84375 12.1943 9.84375 13.3594C9.84375 14.5245 10.788 15.4688 11.9531 15.4688V16.875C11.9531 19.9814 14.4717 22.5 17.5781 22.5H23.2031C26.3095 22.5 28.8281 19.9814 28.8281 16.875V7.03125C28.8281 4.70109 26.9395 2.8125 24.6094 2.8125H16.1719C13.8417 2.8125 11.9531 4.70109 11.9531 7.03125Z" fill="#E0C8A4"/>
<path d="M23.2031 22.8516H17.5781C14.2826 22.8516 11.6016 20.1705 11.6016 16.875V15.795C10.4105 15.6241 9.49219 14.5969 9.49219 13.3594C9.49219 12.1219 10.4105 11.0946 11.6016 10.9237V7.03125C11.6016 4.51125 13.6519 2.46094 16.1719 2.46094H24.6094C27.1294 2.46094 29.1797 4.51125 29.1797 7.03125V16.875C29.1797 20.1705 26.4987 22.8516 23.2031 22.8516ZM16.1719 3.16406C14.0393 3.16406 12.3047 4.89867 12.3047 7.03125V11.25C12.3047 11.4441 12.1472 11.6016 11.9531 11.6016C10.9842 11.6016 10.1953 12.3905 10.1953 13.3594C10.1953 14.3283 10.9842 15.1172 11.9531 15.1172C12.1472 15.1172 12.3047 15.2747 12.3047 15.4688V16.875C12.3047 19.7831 14.67 22.1484 17.5781 22.1484H23.2031C26.1112 22.1484 28.4766 19.7831 28.4766 16.875V7.03125C28.4766 4.89867 26.742 3.16406 24.6094 3.16406H16.1719Z" fill="#212A41"/>
<path d="M23.2031 21.4453C23.0091 21.4453 22.8516 21.2878 22.8516 21.0938C22.8516 20.8997 23.0091 20.7422 23.2031 20.7422C25.3357 20.7422 27.0703 19.0076 27.0703 16.875V8.4375C27.0703 8.24344 27.2278 8.08594 27.4219 8.08594C27.6159 8.08594 27.7734 8.24344 27.7734 8.4375V16.875C27.7734 19.395 25.7231 21.4453 23.2031 21.4453Z" fill="#C2AA86"/>
<path d="M17.5781 21.4453C15.0581 21.4453 13.0078 19.395 13.0078 16.875V15.4688C13.0078 15.2747 13.1653 15.1172 13.3594 15.1172C13.5534 15.1172 13.7109 15.2747 13.7109 15.4688V16.875C13.7109 19.0076 15.4455 20.7422 17.5781 20.7422C17.7722 20.7422 17.9297 20.8997 17.9297 21.0938C17.9297 21.2878 17.7722 21.4453 17.5781 21.4453Z" fill="#FEE6C2"/>
<path d="M29.5312 26.7188H26.7188L28.125 22.5L29.5312 26.7188Z" fill="#0079A8"/>
<path d="M29.5312 27.0703H26.7187C26.6055 27.0703 26.4994 27.0162 26.4333 26.9241C26.3672 26.8327 26.3489 26.7145 26.3855 26.607L27.7917 22.3882C27.8873 22.1013 28.3626 22.1013 28.4583 22.3882L29.8645 26.607C29.9004 26.7138 29.8821 26.832 29.8167 26.9241C29.7506 27.0162 29.6444 27.0703 29.5312 27.0703ZM27.2067 26.3672H29.0433L28.125 23.6116L27.2067 26.3672Z" fill="#212A41"/>
<path d="M26.7188 26.7188H23.9062V22.5H28.125L26.7188 26.7188Z" fill="#005B8A"/>
<path d="M26.7187 27.0703H23.9062C23.7122 27.0703 23.5547 26.9128 23.5547 26.7188V22.5C23.5547 22.3059 23.7122 22.1484 23.9062 22.1484H28.125C28.2382 22.1484 28.3444 22.2026 28.4105 22.2947C28.4766 22.3861 28.4948 22.5042 28.4583 22.6118L27.052 26.8305C27.0042 26.9733 26.8699 27.0703 26.7187 27.0703ZM24.2578 26.3672H26.4656L27.6377 22.8516H24.2578V26.3672Z" fill="#212A41"/>
<path d="M23.9062 22.5H16.875V26.7188H23.9062V22.5Z" fill="#E8D2A8"/>
<path d="M23.9062 27.0703H16.875C16.6809 27.0703 16.5234 26.9128 16.5234 26.7188V22.5C16.5234 22.3059 16.6809 22.1484 16.875 22.1484H23.9062C24.1003 22.1484 24.2578 22.3059 24.2578 22.5V26.7188C24.2578 26.9128 24.1003 27.0703 23.9062 27.0703ZM17.2266 26.3672H23.5547V22.8516H17.2266V26.3672Z" fill="#212A41"/>
<path d="M19.6875 26.7188H15.4688L12.6562 22.5H16.875L19.6875 26.7188Z" fill="#0079A8"/>
<path d="M19.6875 27.0703H15.4687C15.3513 27.0703 15.2416 27.012 15.1762 26.9135L12.3637 22.6948C12.292 22.5872 12.285 22.448 12.3462 22.3341C12.4073 22.2202 12.5262 22.1484 12.6562 22.1484H16.875C16.9924 22.1484 17.1021 22.2068 17.1675 22.3052L19.98 26.524C20.0517 26.6316 20.0587 26.7708 19.9976 26.8847C19.9364 26.9986 19.8176 27.0703 19.6875 27.0703ZM15.6572 26.3672H19.0308L16.6873 22.8516H13.3137L15.6572 26.3672Z" fill="#212A41"/>
<path d="M15.4688 26.7188H11.25L12.6562 22.5H16.875L15.4688 26.7188Z" fill="#005B8A"/>
<path d="M15.4687 27.0703H11.25C11.1368 27.0703 11.0306 27.0162 10.9645 26.9241C10.8984 26.8327 10.8802 26.7145 10.9167 26.607L12.323 22.3882C12.3708 22.2455 12.5051 22.1484 12.6562 22.1484H16.875C16.9882 22.1484 17.0944 22.2026 17.1605 22.2947C17.2266 22.3861 17.2448 22.5042 17.2083 22.6118L15.802 26.8305C15.7542 26.9733 15.6199 27.0703 15.4687 27.0703ZM11.738 26.3672H15.2156L16.3877 22.8516H12.9094L11.738 26.3672Z" fill="#212A41"/>
<path d="M11.9531 15.8203C11.2957 15.8203 10.6777 15.5644 10.2129 15.0996C9.25313 14.1406 9.25313 12.5789 10.2129 11.6198C11.1424 10.6903 12.7638 10.6903 13.6934 11.6198C13.8305 11.757 13.8305 11.9798 13.6934 12.117C13.5563 12.2541 13.3334 12.2541 13.1963 12.117C12.5318 11.4525 11.3738 11.4532 10.71 12.117C10.0245 12.8025 10.0245 13.9177 10.71 14.6025C11.3738 15.2663 12.5318 15.2663 13.1963 14.6025C13.3334 14.4654 13.5563 14.4654 13.6934 14.6025C13.8305 14.7396 13.8305 14.9625 13.6934 15.0996C13.2286 15.5644 12.6106 15.8203 11.9531 15.8203Z" fill="#212A41"/>
<path d="M23.2031 34.4531V42.1875H8.4375V35.1562C8.4375 30.4966 12.2154 26.7188 16.875 26.7188H19.6875L23.2031 34.4531Z" fill="#0079A8"/>
<path d="M23.2031 42.5391H8.4375C8.24344 42.5391 8.08594 42.3816 8.08594 42.1875V35.1562C8.08594 30.3096 12.0284 26.3672 16.875 26.3672H19.6875C19.8253 26.3672 19.9505 26.448 20.0074 26.5732L23.523 34.3076C23.5441 34.3533 23.5547 34.4032 23.5547 34.4531V42.1875C23.5547 42.3816 23.3972 42.5391 23.2031 42.5391ZM8.78906 41.8359H22.8516V34.5291L19.4611 27.0703H16.875C12.4165 27.0703 8.78906 30.6977 8.78906 35.1562V41.8359Z" fill="#212A41"/>
<path d="M4.21875 41.1328C4.02469 41.1328 3.86719 40.9753 3.86719 40.7813V35.1563C3.86719 31.6568 6.35555 28.6137 9.78328 27.9197C9.97383 27.8824 10.1595 28.0048 10.1974 28.1946C10.2354 28.3845 10.1123 28.5701 9.9225 28.6088C6.82102 29.2366 4.57031 31.9908 4.57031 35.1563V40.7813C4.57031 40.9753 4.41281 41.1328 4.21875 41.1328Z" fill="#0079A8"/>
<path d="M9.84375 41.1328C9.64969 41.1328 9.49219 40.9753 9.49219 40.7812V35.1562C9.49219 31.0852 12.8039 27.7734 16.875 27.7734H17.2962C17.4902 27.7734 17.6477 27.9309 17.6477 28.125C17.6477 28.3191 17.4902 28.4766 17.2962 28.4766H16.875C13.192 28.4766 10.1953 31.4733 10.1953 35.1562V40.7812C10.1953 40.9753 10.0378 41.1328 9.84375 41.1328Z" fill="#1E97C6"/>
<path d="M28.8281 11.25H11.9531V7.03125C11.9531 4.70109 13.8417 2.8125 16.1719 2.8125H24.6094C26.9395 2.8125 28.8281 4.70109 28.8281 7.03125V11.25Z" fill="#0079A8"/>
<path d="M28.8281 11.6016H11.9531C11.7591 11.6016 11.6016 11.4441 11.6016 11.25V7.03125C11.6016 4.51125 13.6519 2.46094 16.1719 2.46094H24.6094C27.1294 2.46094 29.1797 4.51125 29.1797 7.03125V11.25C29.1797 11.4441 29.0222 11.6016 28.8281 11.6016ZM12.3047 10.8984H28.4766V7.03125C28.4766 4.89867 26.742 3.16406 24.6094 3.16406H16.1719C14.0393 3.16406 12.3047 4.89867 12.3047 7.03125V10.8984Z" fill="#212A41"/>
<path d="M27.4219 8.08594C27.2278 8.08594 27.0703 7.92844 27.0703 7.73438V7.03125C27.0703 5.67422 25.9664 4.57031 24.6094 4.57031C24.4153 4.57031 24.2578 4.41281 24.2578 4.21875C24.2578 4.02469 24.4153 3.86719 24.6094 3.86719C26.3538 3.86719 27.7734 5.2868 27.7734 7.03125V7.73438C27.7734 7.92844 27.6159 8.08594 27.4219 8.08594Z" fill="#005B8A"/>
<path d="M13.3594 8.08594C13.1653 8.08594 13.0078 7.92844 13.0078 7.73438V7.03125C13.0078 5.2868 14.4274 3.86719 16.1719 3.86719C16.3659 3.86719 16.5234 4.02469 16.5234 4.21875C16.5234 4.41281 16.3659 4.57031 16.1719 4.57031C14.8148 4.57031 13.7109 5.67422 13.7109 7.03125V7.73438C13.7109 7.92844 13.5534 8.08594 13.3594 8.08594Z" fill="#005B8A"/>
<path d="M23.2031 34.4531V42.1875H37.9688V35.1562C37.9688 30.4966 34.1909 26.7188 29.5312 26.7188H26.7188L23.2031 34.4531Z" fill="#0079A8"/>
<path d="M37.9688 42.5391H23.2031C23.0091 42.5391 22.8516 42.3816 22.8516 42.1875V34.4531C22.8516 34.4032 22.8621 34.3533 22.8832 34.3076L26.3988 26.5732C26.4558 26.448 26.5809 26.3672 26.7188 26.3672H29.5312C34.3779 26.3672 38.3203 30.3096 38.3203 35.1562V42.1875C38.3203 42.3816 38.1628 42.5391 37.9688 42.5391ZM23.5547 41.8359H37.6172V35.1562C37.6172 30.6977 33.9898 27.0703 29.5312 27.0703H26.9452L23.5547 34.5291V41.8359Z" fill="#212A41"/>
<path d="M36.5625 41.1328C36.3684 41.1328 36.2109 40.9753 36.2109 40.7812V35.1562C36.2109 31.4733 33.2142 28.4766 29.5312 28.4766H29.1101C28.916 28.4766 28.7585 28.3191 28.7585 28.125C28.7585 27.9309 28.916 27.7734 29.1101 27.7734H29.5312C33.6023 27.7734 36.9141 31.0852 36.9141 35.1562V40.7812C36.9141 40.9753 36.7566 41.1328 36.5625 41.1328Z" fill="#005B8A"/>
<path d="M22.5 25.6641C22.3059 25.6641 22.1484 25.5066 22.1484 25.3125V23.9062C22.1484 23.7122 22.3059 23.5547 22.5 23.5547C22.6941 23.5547 22.8516 23.7122 22.8516 23.9062V25.3125C22.8516 25.5066 22.6941 25.6641 22.5 25.6641Z" fill="#C2AA86"/>
<path d="M33.75 9.14062H11.9531V11.25H33.75C34.1381 11.25 34.4531 10.935 34.4531 10.5469V9.84375C34.4531 9.45562 34.1381 9.14062 33.75 9.14062Z" fill="#0079A8"/>
<path d="M33.75 11.6016H11.9531C11.7591 11.6016 11.6016 11.4441 11.6016 11.25V9.14062C11.6016 8.94656 11.7591 8.78906 11.9531 8.78906H33.75C34.3315 8.78906 34.8047 9.26227 34.8047 9.84375V10.5469C34.8047 11.1284 34.3315 11.6016 33.75 11.6016ZM12.3047 10.8984H33.75C33.9441 10.8984 34.1016 10.7409 34.1016 10.5469V9.84375C34.1016 9.64969 33.9441 9.49219 33.75 9.49219H12.3047V10.8984Z" fill="#212A41"/>
<path d="M37.9688 35.1562H22.5V42.1875H37.9688V35.1562Z" fill="#99A2B9"/>
<path d="M37.9688 42.5391H22.5C22.3059 42.5391 22.1484 42.3816 22.1484 42.1875V35.1562C22.1484 34.9622 22.3059 34.8047 22.5 34.8047H37.9688C38.1628 34.8047 38.3203 34.9622 38.3203 35.1562V42.1875C38.3203 42.3816 38.1628 42.5391 37.9688 42.5391ZM22.8516 41.8359H37.6172V35.5078H22.8516V41.8359Z" fill="#212A41"/>
<path d="M37.9688 35.1562H22.5C22.1119 35.1562 21.7969 34.8412 21.7969 34.4531V31.6406C21.7969 31.2525 22.1119 30.9375 22.5 30.9375H37.9688C38.3569 30.9375 38.6719 31.2525 38.6719 31.6406V34.4531C38.6719 34.8412 38.3569 35.1562 37.9688 35.1562Z" fill="#99A2B9"/>
<path d="M37.9688 35.5078H22.5C21.9185 35.5078 21.4453 35.0346 21.4453 34.4531V31.6406C21.4453 31.0591 21.9185 30.5859 22.5 30.5859H37.9688C38.5502 30.5859 39.0234 31.0591 39.0234 31.6406V34.4531C39.0234 35.0346 38.5502 35.5078 37.9688 35.5078ZM22.5 31.2891C22.3059 31.2891 22.1484 31.4466 22.1484 31.6406V34.4531C22.1484 34.6472 22.3059 34.8047 22.5 34.8047H37.9688C38.1628 34.8047 38.3203 34.6472 38.3203 34.4531V31.6406C38.3203 31.4466 38.1628 31.2891 37.9688 31.2891H22.5Z" fill="#212A41"/>
<path d="M41.4844 35.1562H26.0156V42.1875H41.4844V35.1562Z" fill="#B7C0D7"/>
<path d="M41.4844 42.5391H26.0156C25.8216 42.5391 25.6641 42.3816 25.6641 42.1875V35.1562C25.6641 34.9622 25.8216 34.8047 26.0156 34.8047H41.4844C41.6784 34.8047 41.8359 34.9622 41.8359 35.1562V42.1875C41.8359 42.3816 41.6784 42.5391 41.4844 42.5391ZM26.3672 41.8359H41.1328V35.5078H26.3672V41.8359Z" fill="#212A41"/>
<path d="M41.4844 35.1562H26.0156C25.6275 35.1562 25.3125 34.8412 25.3125 34.4531V31.6406C25.3125 31.2525 25.6275 30.9375 26.0156 30.9375H41.4844C41.8725 30.9375 42.1875 31.2525 42.1875 31.6406V34.4531C42.1875 34.8412 41.8725 35.1562 41.4844 35.1562Z" fill="#B7C0D7"/>
<path d="M41.4844 35.5078H26.0156C25.4341 35.5078 24.9609 35.0346 24.9609 34.4531V31.6406C24.9609 31.0591 25.4341 30.5859 26.0156 30.5859H41.4844C42.0659 30.5859 42.5391 31.0591 42.5391 31.6406V34.4531C42.5391 35.0346 42.0659 35.5078 41.4844 35.5078ZM26.0156 31.2891C25.8216 31.2891 25.6641 31.4466 25.6641 31.6406V34.4531C25.6641 34.6472 25.8216 34.8047 26.0156 34.8047H41.4844C41.6784 34.8047 41.8359 34.6472 41.8359 34.4531V31.6406C41.8359 31.4466 41.6784 31.2891 41.4844 31.2891H26.0156Z" fill="#212A41"/>
<path d="M35.1562 37.9688L33.75 36.5625L32.3438 37.9688V30.9375H35.1562V37.9688Z" fill="#F9AC2F"/>
<path d="M35.1562 38.3203C35.0648 38.3203 34.9748 38.2845 34.9073 38.2177L33.75 37.0596L32.5927 38.217C32.4914 38.3175 32.3409 38.3477 32.2095 38.2929C32.078 38.2395 31.9922 38.1108 31.9922 37.9688V30.9375C31.9922 30.7434 32.1497 30.5859 32.3438 30.5859H35.1562C35.3503 30.5859 35.5078 30.7434 35.5078 30.9375V37.9688C35.5078 38.1108 35.422 38.2395 35.2905 38.2936C35.247 38.3119 35.2013 38.3203 35.1562 38.3203ZM33.75 36.2109C33.84 36.2109 33.93 36.2454 33.9989 36.3136L34.8047 37.1194V31.2891H32.6953V37.1201L33.5011 36.3143C33.57 36.2454 33.66 36.2109 33.75 36.2109Z" fill="#212A41"/>
<path d="M40.0781 41.1328C39.8841 41.1328 39.7266 40.9753 39.7266 40.7812V36.5625C39.7266 36.3684 39.8841 36.2109 40.0781 36.2109C40.2722 36.2109 40.4297 36.3684 40.4297 36.5625V40.7812C40.4297 40.9753 40.2722 41.1328 40.0781 41.1328Z" fill="#99A2B9"/>
<path d="M40.7812 34.1016C40.5872 34.1016 40.4297 33.9441 40.4297 33.75V32.3438C40.4297 32.1497 40.5872 31.9922 40.7812 31.9922C40.9753 31.9922 41.1328 32.1497 41.1328 32.3438V33.75C41.1328 33.9441 40.9753 34.1016 40.7812 34.1016Z" fill="#99A2B9"/>
<path d="M26.7188 34.1016C26.5247 34.1016 26.3672 33.9441 26.3672 33.75V32.3438C26.3672 32.1497 26.5247 31.9922 26.7188 31.9922C26.9128 31.9922 27.0703 32.1497 27.0703 32.3438V33.75C27.0703 33.9441 26.9128 34.1016 26.7188 34.1016Z" fill="#D5DEF5"/>
<path d="M27.4219 41.1328C27.2278 41.1328 27.0703 40.9753 27.0703 40.7812V36.5625C27.0703 36.3684 27.2278 36.2109 27.4219 36.2109C27.6159 36.2109 27.7734 36.3684 27.7734 36.5625V40.7812C27.7734 40.9753 27.6159 41.1328 27.4219 41.1328Z" fill="#D5DEF5"/>
</svg>
