<svg width="43" height="41" viewBox="0 0 43 41" fill="none" xmlns="http://www.w3.org/2000/svg">
<path d="M22.4879 22.4355L21.1749 24.7097C20.9437 25.1102 21.0808 25.6222 21.4812 25.8534C21.8817 26.0845 22.3937 25.9474 22.6249 25.547L23.8677 23.3945C23.3779 23.117 22.916 22.796 22.4879 22.4355Z" fill="#A4C9FF"/>
<path d="M18.0113 32.3379C17.9876 32.2968 17.9672 32.2546 17.9494 32.2121C17.9479 32.2084 17.9466 32.2047 17.9452 32.201C17.9285 32.1597 17.9138 32.1179 17.9016 32.0757L17.7439 32.1664C17.211 32.4728 16.5328 32.2968 16.2289 31.7733L8.35706 18.2074C8.05331 17.6839 8.23893 17.011 8.7719 16.7047L8.9359 16.6103C8.92026 16.5871 8.90426 16.564 8.8902 16.5394L5.07557 9.93233C5.04745 9.88346 5.02459 9.83336 5.0042 9.78256L3.53098 10.6297C0.511059 12.3662 -0.541343 16.1789 1.18008 19.1456L11.8268 37.4932C13.5482 40.4599 17.3919 41.4571 20.4116 39.7206L21.8096 38.9167L18.0113 32.3379Z" fill="#6BDDDD"/>
<path d="M23.9591 29.2378L27.4845 35.3441C27.8835 36.0355 27.6468 36.9193 26.9556 37.3185L23.4055 39.3681C22.8525 39.6873 22.1453 39.4978 21.8261 38.9448L18.0115 32.3379C17.6923 31.7849 17.8818 31.0778 18.4348 30.7585L21.9849 28.7089C22.676 28.3097 23.5599 28.5465 23.9591 29.2378Z" fill="#6BDDDD"/>
<path d="M11.0231 6.83225L14.5486 12.9385C14.9476 13.6299 14.7109 14.5137 14.0197 14.9129L10.4696 16.9625C9.9166 17.2817 9.20943 17.0922 8.89021 16.5392L5.07558 9.93232C4.75636 9.37932 4.94585 8.67215 5.49886 8.35293L9.04894 6.30332C9.74011 5.90412 10.6241 6.14107 11.0231 6.83225Z" fill="#6BDDDD"/>
<path d="M22.8296 39.8753C22.6987 39.8753 22.5668 39.858 22.4369 39.8232C22.0479 39.719 21.7227 39.4696 21.5215 39.1206L17.707 32.5137C17.5056 32.165 17.4521 31.7586 17.5564 31.3696C17.6606 30.9806 17.91 30.6554 18.259 30.4541L21.809 28.4045C22.2246 28.1645 22.709 28.1006 23.1726 28.225C23.6361 28.3493 24.0235 28.6465 24.2637 29.0623L27.7891 35.1685C28.0291 35.5843 28.0929 36.0685 27.9686 36.5321C27.8443 36.9958 27.5471 37.3832 27.1314 37.6231L23.5813 39.6728C23.3489 39.8067 23.091 39.8753 22.8296 39.8753ZM22.7055 28.8663C22.516 28.8663 22.329 28.916 22.1604 29.0132L18.6104 31.0628C18.2261 31.2847 18.0939 31.7777 18.3159 32.162L22.1304 38.7689C22.2378 38.955 22.4115 39.0881 22.619 39.1438C22.827 39.1997 23.0437 39.1711 23.2297 39.0635L26.7798 37.0139C27.0327 36.8678 27.2138 36.6319 27.2894 36.3498C27.365 36.0677 27.3261 35.7729 27.18 35.5198L23.6546 29.4135C23.5085 29.1605 23.2726 28.9795 22.9905 28.9039C22.8961 28.8787 22.8005 28.8663 22.7055 28.8663Z" fill="#3762CC"/>
<path d="M9.8939 17.4696C9.76294 17.4696 9.6311 17.4524 9.5012 17.4176C9.1122 17.3134 8.787 17.0639 8.58573 16.715L4.7711 10.1081C4.56966 9.75935 4.51622 9.35294 4.62046 8.96394C4.7247 8.57494 4.97413 8.24974 5.32306 8.04847L8.87313 5.99886C9.28868 5.75875 9.77278 5.69494 10.2367 5.81939C10.7002 5.94367 11.0876 6.24091 11.3277 6.65664L14.8532 12.7629C15.3486 13.6209 15.0536 14.7222 14.1954 15.2175L10.6454 17.2671C10.4132 17.4013 10.1551 17.4696 9.8939 17.4696ZM9.76979 6.46064C9.5803 6.46064 9.39327 6.51039 9.2247 6.60759L5.67462 8.65738C5.48847 8.76478 5.3554 8.93845 5.29968 9.14605C5.24395 9.35365 5.27261 9.57056 5.38001 9.75671L9.19464 16.3636C9.30204 16.5498 9.47571 16.6828 9.68331 16.7386C9.89126 16.7945 10.1078 16.7658 10.294 16.6582L13.8441 14.6086C14.097 14.4626 14.2781 14.2267 14.3536 13.9445C14.4292 13.6624 14.3904 13.3676 14.2443 13.1145L10.7187 7.00802C10.5726 6.75507 10.3367 6.57402 10.0546 6.49843C9.96034 6.4733 9.86489 6.46064 9.76979 6.46064Z" fill="#3762CC"/>
<path d="M22.8296 39.8753C22.6987 39.8753 22.5668 39.858 22.4369 39.8232C22.0479 39.719 21.7227 39.4696 21.5215 39.1206L17.707 32.5137C17.5056 32.165 17.4521 31.7586 17.5564 31.3696C17.6606 30.9806 17.91 30.6554 18.259 30.4541L21.809 28.4045C22.2246 28.1645 22.709 28.1006 23.1726 28.225C23.6361 28.3493 24.0235 28.6465 24.2637 29.0623L27.7891 35.1685C28.0291 35.5843 28.0929 36.0685 27.9686 36.5321C27.8443 36.9958 27.5471 37.3832 27.1314 37.6231L23.5813 39.6728C23.3489 39.8067 23.091 39.8753 22.8296 39.8753ZM22.7055 28.8663C22.516 28.8663 22.329 28.916 22.1604 29.0132L18.6104 31.0628C18.2261 31.2847 18.0939 31.7777 18.3159 32.162L22.1304 38.7689C22.2378 38.955 22.4115 39.0881 22.619 39.1438C22.827 39.1997 23.0437 39.1711 23.2297 39.0635L26.7798 37.0139C27.0327 36.8678 27.2138 36.6319 27.2894 36.3498C27.365 36.0677 27.3261 35.7729 27.18 35.5198L23.6546 29.4135C23.5085 29.1605 23.2726 28.9795 22.9905 28.9039C22.8961 28.8787 22.8005 28.8663 22.7055 28.8663Z" fill="#3762CC"/>
<path d="M9.8939 17.4696C9.76294 17.4696 9.6311 17.4524 9.5012 17.4176C9.1122 17.3134 8.787 17.0639 8.58573 16.715L4.7711 10.1081C4.56966 9.75935 4.51622 9.35294 4.62046 8.96394C4.7247 8.57494 4.97413 8.24974 5.32306 8.04847L8.87313 5.99886C9.28868 5.75875 9.77278 5.69494 10.2367 5.81939C10.7002 5.94367 11.0876 6.24091 11.3277 6.65664L14.8532 12.7629C15.3486 13.6209 15.0536 14.7222 14.1954 15.2175L10.6454 17.2671C10.4132 17.4013 10.1551 17.4696 9.8939 17.4696ZM9.76979 6.46064C9.5803 6.46064 9.39327 6.51039 9.2247 6.60759L5.67462 8.65738C5.48847 8.76478 5.3554 8.93845 5.29968 9.14605C5.24395 9.35365 5.27261 9.57056 5.38001 9.75671L9.19464 16.3636C9.30204 16.5498 9.47571 16.6828 9.68331 16.7386C9.89126 16.7945 10.1078 16.7658 10.294 16.6582L13.8441 14.6086C14.097 14.4626 14.2781 14.2267 14.3536 13.9445C14.4292 13.6624 14.3904 13.3676 14.2443 13.1145L10.7187 7.00802C10.5726 6.75507 10.3367 6.57402 10.0546 6.49843C9.96034 6.4733 9.86489 6.46064 9.76979 6.46064Z" fill="#3762CC"/>
<path d="M22.8296 39.8753C22.6987 39.8753 22.5668 39.858 22.4369 39.8232C22.0479 39.719 21.7227 39.4696 21.5215 39.1206L17.707 32.5137C17.5056 32.165 17.4521 31.7586 17.5564 31.3696C17.6606 30.9806 17.91 30.6554 18.259 30.4541L21.809 28.4045C22.2246 28.1645 22.709 28.1006 23.1726 28.225C23.6361 28.3493 24.0235 28.6465 24.2637 29.0623L27.7891 35.1685C28.0291 35.5843 28.0929 36.0685 27.9686 36.5321C27.8443 36.9958 27.5471 37.3832 27.1314 37.6231L23.5813 39.6728C23.3489 39.8067 23.091 39.8753 22.8296 39.8753ZM22.7055 28.8663C22.516 28.8663 22.329 28.916 22.1604 29.0132L18.6104 31.0628C18.2261 31.2847 18.0939 31.7777 18.3159 32.162L22.1304 38.7689C22.2378 38.955 22.4115 39.0881 22.619 39.1438C22.827 39.1997 23.0437 39.1711 23.2297 39.0635L26.7798 37.0139C27.0327 36.8678 27.2138 36.6319 27.2894 36.3498C27.365 36.0677 27.3261 35.7729 27.18 35.5198L23.6546 29.4135C23.5085 29.1605 23.2726 28.9795 22.9905 28.9039C22.8961 28.8787 22.8005 28.8663 22.7055 28.8663Z" fill="#3762CC"/>
<path d="M9.8939 17.4696C9.76294 17.4696 9.6311 17.4524 9.5012 17.4176C9.1122 17.3134 8.787 17.0639 8.58573 16.715L4.7711 10.1081C4.56966 9.75935 4.51622 9.35294 4.62046 8.96394C4.7247 8.57494 4.97413 8.24974 5.32306 8.04847L8.87313 5.99886C9.28868 5.75875 9.77278 5.69494 10.2367 5.81939C10.7002 5.94367 11.0876 6.24091 11.3277 6.65664L14.8532 12.7629C15.3486 13.6209 15.0536 14.7222 14.1954 15.2175L10.6454 17.2671C10.4132 17.4013 10.1551 17.4696 9.8939 17.4696ZM9.76979 6.46064C9.5803 6.46064 9.39327 6.51039 9.2247 6.60759L5.67462 8.65738C5.48847 8.76478 5.3554 8.93845 5.29968 9.14605C5.24395 9.35365 5.27261 9.57056 5.38001 9.75671L9.19464 16.3636C9.30204 16.5498 9.47571 16.6828 9.68331 16.7386C9.89126 16.7945 10.1078 16.7658 10.294 16.6582L13.8441 14.6086C14.097 14.4626 14.2781 14.2267 14.3536 13.9445C14.4292 13.6624 14.3904 13.3676 14.2443 13.1145L10.7187 7.00802C10.5726 6.75507 10.3367 6.57402 10.0546 6.49843C9.96034 6.4733 9.86489 6.46064 9.76979 6.46064Z" fill="#3762CC"/>
<path d="M17.2338 40.9233C14.9487 40.9233 12.7345 39.7582 11.5225 37.6697L0.875978 19.322C0.00533315 17.8214 -0.225819 16.0673 0.225235 14.3824C0.685782 12.6619 1.7976 11.221 3.35572 10.3248L4.82895 9.47775C4.91719 9.42695 5.02319 9.41693 5.11951 9.45033C5.21567 9.48373 5.29283 9.5572 5.33063 9.65177C5.34768 9.69449 5.36332 9.72771 5.38002 9.75654L9.19465 16.3635C9.20344 16.3787 9.21311 16.3923 9.22242 16.4062C9.27744 16.487 9.29836 16.5904 9.27639 16.6857C9.25442 16.7809 9.19606 16.866 9.11133 16.9149L8.94732 17.0093C8.76838 17.1121 8.64094 17.277 8.58838 17.4737C8.5374 17.6641 8.56324 17.8618 8.6615 18.0307L16.5333 31.5967C16.7395 31.9523 17.2043 32.0713 17.569 31.8614L17.7267 31.7707C17.8206 31.7167 17.9343 31.7092 18.0343 31.7498C18.1347 31.7905 18.2105 31.8751 18.2402 31.9793C18.2486 32.0094 18.2592 32.0391 18.2711 32.0685C18.2862 32.1055 18.3001 32.134 18.3161 32.1618C18.3161 32.1618 18.3161 32.1618 18.3161 32.162L22.1144 38.7408C22.1612 38.8216 22.1736 38.9176 22.1496 39.0079C22.1253 39.0981 22.0662 39.1749 21.9852 39.2213L20.587 40.0254C19.5287 40.6339 18.3722 40.9233 17.2338 40.9233ZM4.86375 10.2688L3.70623 10.9345C2.31141 11.7365 1.31631 13.0255 0.904454 14.5642C0.502091 16.0669 0.708107 17.6314 1.48418 18.9691L12.1309 37.3168C13.7528 40.1117 17.3892 41.0533 20.2363 39.4158L21.3292 38.7873L17.7343 32.5608C17.0693 32.8294 16.2908 32.5796 15.9248 31.9494L8.05295 18.3835C7.86047 18.0517 7.80932 17.6639 7.90881 17.2918C7.99582 16.9673 8.1876 16.6879 8.45637 16.4909L4.86375 10.2688Z" fill="#3762CC"/>
<path d="M29.869 5.26077H26.799C26.5678 5.26077 26.3802 5.07338 26.3802 4.84206V4.07459C26.3802 3.84344 26.5676 3.65588 26.799 3.65588H29.869C30.1001 3.65588 30.2877 3.84327 30.2877 4.07459V4.84206C30.2877 5.07321 30.1001 5.26077 29.869 5.26077Z" fill="#4671C6"/>
<path d="M35.5398 8.60394L33.9763 7.21228C33.89 7.13547 33.8822 7.0031 33.959 6.9168L34.8687 5.8948C35.0993 5.6357 35.4963 5.61267 35.7552 5.8433L36.6933 6.67826C36.9524 6.90889 36.9755 7.3058 36.7448 7.56473L35.8352 8.58672C35.7585 8.67303 35.6262 8.68076 35.5398 8.60394Z" fill="#6BDDDD"/>
<path d="M21.1283 8.60394L22.6919 7.21228C22.7782 7.13547 22.7859 7.0031 22.7091 6.9168L21.7994 5.8948C21.5688 5.6357 21.1719 5.61267 20.9129 5.8433L19.9748 6.67826C19.7157 6.90889 19.6927 7.3058 19.9233 7.56473L20.833 8.58672C20.9096 8.67303 21.042 8.68076 21.1283 8.60394Z" fill="#6BDDDD"/>
<path d="M28.3341 24.5723C33.3543 24.5723 37.4241 20.5025 37.4241 15.4823C37.4241 10.462 33.3543 6.39227 28.3341 6.39227C23.3138 6.39227 19.2441 10.462 19.2441 15.4823C19.2441 20.5025 23.3138 24.5723 28.3341 24.5723Z" fill="#4671C6"/>
<path d="M28.3341 22.8978C32.4296 22.8978 35.7496 19.5777 35.7496 15.4823C35.7496 11.3868 32.4296 8.06676 28.3341 8.06676C24.2386 8.06676 20.9186 11.3868 20.9186 15.4823C20.9186 19.5777 24.2386 22.8978 28.3341 22.8978Z" fill="#A4C9FF"/>
<path d="M28.334 18.1881C29.8284 18.1881 31.0398 16.9766 31.0398 15.4823C31.0398 13.9879 29.8284 12.7765 28.334 12.7765C26.8397 12.7765 25.6282 13.9879 25.6282 15.4823C25.6282 16.9766 26.8397 18.1881 28.334 18.1881Z" fill="#F9A7A7"/>
<path d="M28.3341 10.6235C28.1217 10.6235 27.9495 10.4512 27.9495 10.2389V8.80838C27.9495 8.59603 28.1217 8.42377 28.3341 8.42377C28.5464 8.42377 28.7187 8.59603 28.7187 8.80838V10.2389C28.7187 10.4512 28.5464 10.6235 28.3341 10.6235Z" fill="#E0EBFC"/>
<path d="M28.3341 22.5408C28.1217 22.5408 27.9495 22.3685 27.9495 22.1561V20.7256C27.9495 20.5133 28.1217 20.341 28.3341 20.341C28.5464 20.341 28.7187 20.5133 28.7187 20.7256V22.1561C28.7187 22.3685 28.5464 22.5408 28.3341 22.5408Z" fill="#E0EBFC"/>
<path d="M35.0079 15.7407H33.5772C33.3649 15.7407 33.1926 15.5684 33.1926 15.3561C33.1926 15.1437 33.3649 14.9715 33.5772 14.9715H35.0079C35.2203 14.9715 35.3925 15.1437 35.3925 15.3561C35.3925 15.5684 35.2203 15.7407 35.0079 15.7407Z" fill="#E0EBFC"/>
<path d="M23.0907 15.7407H21.66C21.4477 15.7407 21.2754 15.5684 21.2754 15.3561C21.2754 15.1437 21.4477 14.9715 21.66 14.9715H23.0907C23.303 14.9715 23.4753 15.1437 23.4753 15.3561C23.4753 15.5684 23.3032 15.7407 23.0907 15.7407Z" fill="#E0EBFC"/>
<path d="M32.964 20.2744C32.8902 20.2744 32.8163 20.2463 32.7601 20.1899L31.7486 19.1782C31.636 19.0656 31.636 18.8829 31.7486 18.7703C31.8613 18.6576 32.0439 18.6576 32.1566 18.7703L33.1681 19.7819C33.2807 19.8945 33.2807 20.0772 33.1681 20.1899C33.1116 20.2463 33.0378 20.2744 32.964 20.2744Z" fill="#E0EBFC"/>
<path d="M24.7156 12.0262C24.6418 12.0262 24.568 11.9981 24.5117 11.9417L23.5003 10.9301C23.3876 10.8174 23.3876 10.6347 23.5003 10.5221C23.613 10.4094 23.7956 10.4094 23.9083 10.5221L24.9197 11.5337C25.0324 11.6464 25.0324 11.829 24.9197 11.9417C24.8633 11.9979 24.7895 12.0262 24.7156 12.0262Z" fill="#E0EBFC"/>
<path d="M23.7042 20.2744C23.6304 20.2744 23.5565 20.2463 23.5003 20.1899C23.3876 20.0772 23.3876 19.8945 23.5003 19.7819L24.5117 18.7703C24.6242 18.6576 24.807 18.6576 24.9197 18.7703C25.0324 18.8829 25.0324 19.0656 24.9197 19.1782L23.9083 20.1899C23.8518 20.2463 23.778 20.2744 23.7042 20.2744Z" fill="#E0EBFC"/>
<path d="M31.9525 12.0262C31.8787 12.0262 31.8049 11.9981 31.7486 11.9417C31.636 11.829 31.636 11.6464 31.7486 11.5337L32.7601 10.5221C32.8728 10.4094 33.0554 10.4094 33.1681 10.5221C33.2807 10.6347 33.2807 10.8174 33.1681 10.9301L32.1566 11.9417C32.1 11.9979 32.0262 12.0262 31.9525 12.0262Z" fill="#E0EBFC"/>
<path d="M21.8978 26.3169C21.6964 26.3169 21.4923 26.2656 21.3054 26.1578C20.7378 25.8302 20.5425 25.1015 20.8702 24.5339L22.1833 22.2597C22.2353 22.1695 22.3246 22.1071 22.4269 22.0892C22.5297 22.0709 22.6345 22.0995 22.7141 22.1665C23.1242 22.5119 23.5705 22.8222 24.0409 23.0888C24.1225 23.1351 24.1821 23.2119 24.2067 23.3022C24.2313 23.3926 24.2188 23.4891 24.1719 23.5703L22.9291 25.7228C22.7096 26.1037 22.309 26.3169 21.8978 26.3169ZM22.587 22.9665L21.4791 24.8855C21.3453 25.1174 21.425 25.4151 21.657 25.5491C21.8892 25.6832 22.1866 25.6032 22.3204 25.3712L23.3893 23.52C23.1125 23.349 22.8442 23.1641 22.587 22.9665Z" fill="#3762CC"/>
<path d="M28.3341 23.2493C24.0514 23.2493 20.567 19.765 20.567 15.4823C20.567 11.1995 24.0514 7.71519 28.3341 7.71519C32.6168 7.71519 36.1012 11.1995 36.1012 15.4823C36.101 19.765 32.6168 23.2493 28.3341 23.2493ZM28.3341 8.41832C24.4391 8.41832 21.2701 11.5871 21.2701 15.4823C21.2701 19.3774 24.4389 22.5462 28.3341 22.5462C32.2292 22.5462 35.398 19.3774 35.398 15.4823C35.3979 11.5871 32.229 8.41832 28.3341 8.41832Z" fill="#3762CC"/>
<path d="M23.109 8.0483L22.5094 7.37471L21.3107 8.4417L21.8831 9.08489C22.2601 8.70467 22.6702 8.35768 23.109 8.0483Z" fill="#E0EBFC"/>
<path d="M34.7851 9.0847L35.3576 8.44152L34.1589 7.37453L33.5593 8.04812C33.9977 8.35767 34.408 8.70466 34.7851 9.0847Z" fill="#E0EBFC"/>
<path d="M21.8831 9.43627C21.8799 9.43627 21.8767 9.43627 21.8736 9.43627C21.7765 9.43364 21.685 9.3911 21.6204 9.3185L21.0481 8.67532C20.9191 8.5303 20.9319 8.30811 21.0771 8.17891L22.2758 7.11192C22.3454 7.04987 22.4368 7.01823 22.5299 7.02367C22.6231 7.02912 22.7101 7.07131 22.7722 7.14092L23.3717 7.81469C23.4382 7.88957 23.4698 7.98924 23.4584 8.08873C23.447 8.18823 23.3935 8.27805 23.3118 8.33571C22.8919 8.6319 22.4951 8.96729 22.133 9.33239C22.0666 9.39901 21.9767 9.43627 21.8831 9.43627ZM21.8071 8.47035L21.902 8.57688C22.1219 8.37192 22.352 8.17715 22.5902 7.99399L22.4807 7.87094L21.8071 8.47035Z" fill="#3762CC"/>
<path d="M34.7851 9.43627C34.6914 9.43627 34.6015 9.399 34.5354 9.33221C34.1732 8.96693 33.7766 8.63172 33.3565 8.3357C33.2746 8.27787 33.2211 8.18805 33.2099 8.08855C33.1985 7.98906 33.2299 7.88939 33.2965 7.81451L33.8961 7.14074C33.9582 7.07113 34.0454 7.02894 34.1384 7.0235C34.2319 7.01717 34.3228 7.04986 34.3925 7.11174L35.5912 8.17873C35.7362 8.30775 35.7492 8.53012 35.6202 8.67514L35.0478 9.31832C34.9833 9.39092 34.8918 9.43346 34.7947 9.43609C34.7914 9.43627 34.7882 9.43627 34.7851 9.43627ZM34.0781 7.99398C34.3162 8.17715 34.5463 8.37191 34.7662 8.57687L34.8612 8.47035L34.1876 7.87094L34.0781 7.99398Z" fill="#3762CC"/>
<path d="M28.3341 6.39226C28.7415 6.39226 29.1427 6.41968 29.5361 6.47189V5.26076H27.1321V6.47189C27.5255 6.41968 27.9266 6.39226 28.3341 6.39226Z" fill="#A4C9FF"/>
<path d="M29.5361 6.82346C29.5208 6.82346 29.5053 6.82241 29.4898 6.8203C28.7247 6.7187 27.9433 6.7187 27.1783 6.8203C27.0778 6.83366 26.9765 6.80289 26.9004 6.73627C26.8241 6.66948 26.7805 6.57315 26.7805 6.4719V5.26059C26.7805 5.06653 26.938 4.90903 27.1321 4.90903H29.5362C29.7303 4.90903 29.8878 5.06653 29.8878 5.26059V6.4719C29.8878 6.57315 29.844 6.66965 29.7679 6.73627C29.7032 6.79287 29.6208 6.82346 29.5361 6.82346ZM28.3341 6.04071C28.6166 6.04071 28.9013 6.05354 29.1845 6.07903V5.61215H27.4835V6.07903C27.7668 6.05354 28.0516 6.04071 28.3341 6.04071Z" fill="#3762CC"/>
<path d="M35.6786 9.00807C35.546 9.00807 35.4128 8.96148 35.3063 8.86674L35.3061 8.86656L33.7425 7.4749C33.5116 7.26906 33.4908 6.91381 33.6965 6.68301L34.606 5.66119C34.9649 5.25777 35.5851 5.22156 35.9888 5.58068L36.927 6.41565C37.1225 6.58967 37.2385 6.82943 37.2536 7.09047C37.2687 7.35168 37.1813 7.60322 37.0073 7.79852L36.0978 8.82033C35.9873 8.94479 35.8333 9.00807 35.6786 9.00807ZM34.3163 7.04424L35.6673 8.24676L36.4824 7.33094C36.5317 7.27574 36.5563 7.20473 36.552 7.13108C36.5478 7.05742 36.5151 6.98975 36.4599 6.9407L35.522 6.10574C35.4079 6.00432 35.233 6.01451 35.1317 6.12842L34.3163 7.04424Z" fill="#3762CC"/>
<path d="M20.9894 9.00807C20.8349 9.00807 20.6809 8.94479 20.5701 8.82052L19.6605 7.79852C19.4866 7.60323 19.3991 7.35169 19.4144 7.09048C19.4295 6.82926 19.5455 6.58968 19.7408 6.41565L20.6789 5.58069C21.0825 5.22175 21.7029 5.25796 22.0618 5.6612L22.9715 6.68319C23.177 6.91399 23.1564 7.26925 22.9254 7.47491L21.3617 8.86657C21.2552 8.96149 21.1221 9.00807 20.9894 9.00807ZM21.1282 8.60395H21.13H21.1282ZM20.8948 8.34116C20.8948 8.34116 20.8946 8.34134 20.8945 8.34134L20.8948 8.34116ZM21.33 6.03596C21.2646 6.03596 21.1991 6.05899 21.1465 6.10575L20.2084 6.94071C20.1534 6.98975 20.1205 7.05743 20.1163 7.13108C20.112 7.20473 20.1367 7.27575 20.1857 7.33077L21.0008 8.24659L22.3519 7.04407L21.5368 6.12843C21.4821 6.06725 21.4063 6.03596 21.33 6.03596Z" fill="#3762CC"/>
<path d="M29.869 5.61232H26.799C26.3743 5.61232 26.0289 5.26691 26.0289 4.84222V4.07476C26.0289 3.65008 26.3743 3.30449 26.799 3.30449H29.869C30.2937 3.30449 30.6391 3.65008 30.6391 4.07476V4.84222C30.6393 5.26674 30.2937 5.61232 29.869 5.61232ZM26.799 4.00744C26.7621 4.00744 26.732 4.0375 26.732 4.07459V4.84205C26.732 4.87896 26.7621 4.90902 26.799 4.90902H29.869C29.9059 4.90902 29.936 4.87896 29.936 4.84205V4.07459C29.936 4.03767 29.9059 4.00744 29.869 4.00744H26.799Z" fill="#3762CC"/>
<path d="M28.334 15.7955C28.0913 15.7955 27.8946 15.5988 27.8946 15.3561V11.5715C27.8946 11.3287 28.0913 11.132 28.334 11.132C28.5768 11.132 28.7735 11.3287 28.7735 11.5715V15.3561C28.7735 15.5986 28.5766 15.7955 28.334 15.7955Z" fill="#4671C6"/>
<path d="M38.9021 5.81588C38.8673 5.28344 38.6486 4.79055 38.2793 4.42123C37.9128 4.05807 37.4153 3.8415 36.8788 3.81162C36.7117 3.8023 36.5457 3.87051 36.4235 3.99883C36.3003 4.1282 36.2397 4.29888 36.2573 4.46711C36.2696 4.58365 36.3184 4.68771 36.3989 4.76822C36.4854 4.85471 36.6034 4.90674 36.7312 4.91482C37.018 4.93293 37.2731 5.0449 37.4728 5.24283C37.6663 5.43637 37.7795 5.68932 37.8001 5.9739C37.8092 6.09976 37.8613 6.21613 37.9465 6.30156C38.0281 6.38312 38.1339 6.43234 38.2522 6.44359C38.4206 6.45959 38.5906 6.39754 38.7189 6.27308C38.8463 6.14951 38.913 5.98305 38.9021 5.81588Z" fill="#F9CFCF"/>
<path d="M40.8003 6.06303C40.8769 4.88618 40.4849 3.80389 39.6967 3.01569L39.6842 3.00321C38.8874 2.21395 37.7972 1.82776 36.614 1.91583C36.4551 1.9276 36.3029 2.00741 36.1966 2.13467C36.0927 2.25895 36.0424 2.41786 36.0584 2.57096C36.0707 2.68768 36.1196 2.79174 36.1997 2.87208C36.3036 2.97596 36.452 3.02905 36.6072 3.01762C37.4815 2.95381 38.2866 3.23911 38.8741 3.82094L38.8832 3.83008C39.4643 4.41122 39.7538 5.21014 39.6987 6.08008C39.689 6.23337 39.7422 6.38032 39.8447 6.4828C39.9261 6.56419 40.0318 6.61323 40.1508 6.62465C40.3037 6.63924 40.4621 6.58739 40.5853 6.48245C40.7117 6.37504 40.7901 6.22212 40.8003 6.06303Z" fill="#F9CFCF"/>
<path d="M42.6754 6.26834C42.8671 4.49189 42.2957 2.79139 41.1074 1.60311L41.0893 1.58518C39.8884 0.395488 38.1761 -0.166485 36.3914 0.0430467C36.0713 0.0806639 35.8289 0.379316 35.8619 0.695723C35.8742 0.813496 35.9236 0.918437 36.0045 0.999472C36.1129 1.10793 36.2666 1.15926 36.426 1.14062C37.8909 0.968359 39.2953 1.42838 40.2791 2.40309L40.2939 2.41785C41.2674 3.39133 41.7353 4.78598 41.5774 6.24408C41.5604 6.40193 41.6121 6.55381 41.7193 6.66104C41.8014 6.74313 41.9081 6.7927 42.0281 6.80412C42.3444 6.834 42.6407 6.58879 42.6754 6.26834Z" fill="#F9A7A7"/>
<path d="M17.7659 5.81588C17.8007 5.28344 18.0194 4.79055 18.3887 4.42123C18.7554 4.05807 19.2527 3.8415 19.7892 3.81162C19.9563 3.8023 20.1223 3.87051 20.2444 3.99883C20.3677 4.1282 20.4283 4.29888 20.4107 4.46711C20.3984 4.58365 20.3496 4.68771 20.2691 4.76822C20.1826 4.85471 20.0646 4.90674 19.9368 4.91482C19.6499 4.93293 19.3949 5.0449 19.1952 5.24283C19.0017 5.43637 18.8885 5.68932 18.8679 5.9739C18.8588 6.09976 18.8067 6.21613 18.7215 6.30156C18.6399 6.38312 18.5341 6.43234 18.4158 6.44359C18.2474 6.45959 18.0774 6.39754 17.9491 6.27308C17.8216 6.14951 17.755 5.98305 17.7659 5.81588Z" fill="#F9CFCF"/>
<path d="M15.8677 6.06303C15.791 4.88618 16.183 3.80389 16.9712 3.01569L16.9837 3.00321C17.7805 2.21395 18.8707 1.82776 20.0539 1.91583C20.2128 1.9276 20.365 2.00741 20.4714 2.13467C20.5753 2.25895 20.6255 2.41786 20.6095 2.57096C20.5972 2.68768 20.5484 2.79174 20.4682 2.87208C20.3643 2.97596 20.216 3.02905 20.0607 3.01762C19.1864 2.95381 18.3813 3.23911 17.7939 3.82094L17.7847 3.83008C17.2036 4.41122 16.9141 5.21014 16.9693 6.08008C16.9789 6.23337 16.9257 6.38032 16.8232 6.4828C16.7418 6.56419 16.6362 6.61323 16.5172 6.62465C16.3642 6.63924 16.2059 6.58739 16.0826 6.48245C15.9564 6.37504 15.878 6.22212 15.8677 6.06303Z" fill="#F9CFCF"/>
<path d="M13.9928 6.26834C13.801 4.49189 14.3725 2.79139 15.5608 1.60311L15.5789 1.58518C16.7798 0.395488 18.4921 -0.166485 20.2768 0.0430467C20.5969 0.0806639 20.8393 0.379316 20.8063 0.695723C20.7939 0.813496 20.7446 0.918437 20.6637 0.999472C20.5552 1.10793 20.4016 1.15926 20.2422 1.14062C18.7772 0.968359 17.3729 1.42838 16.389 2.40309L16.3743 2.41785C15.4008 3.39133 14.9329 4.78598 15.0907 6.24408C15.1078 6.40193 15.0561 6.55381 14.9489 6.66104C14.8668 6.74313 14.7601 6.7927 14.64 6.80412C14.3238 6.834 14.0274 6.58879 13.9928 6.26834Z" fill="#F9A7A7"/>
<path d="M34.1802 22.4355C33.7521 22.796 33.2902 23.117 32.8003 23.3945L34.0431 25.547C34.2742 25.9474 34.7863 26.0847 35.1867 25.8534C35.5871 25.6222 35.7244 25.1102 35.4931 24.7097L34.1802 22.4355Z" fill="#A4C9FF"/>
<path d="M34.7701 26.3176C34.667 26.3176 34.5629 26.3041 34.4606 26.2766C34.1539 26.1944 33.8974 25.9977 33.7387 25.7226L32.4961 23.5703C32.4491 23.4891 32.4366 23.3926 32.4613 23.3023C32.4859 23.2119 32.5455 23.1349 32.627 23.0889C33.0976 22.822 33.5439 22.5118 33.9536 22.1665C34.0333 22.0996 34.138 22.0711 34.2409 22.0892C34.3433 22.1071 34.4326 22.1695 34.4847 22.2597L35.7978 24.534C36.1254 25.1017 35.9303 25.8303 35.3625 26.158C35.1794 26.2636 34.976 26.3176 34.7701 26.3176ZM33.2786 23.52L34.3476 25.3712C34.4815 25.6032 34.7789 25.683 35.0111 25.5489C35.243 25.4151 35.3226 25.1174 35.1889 24.8853L34.0809 22.9663C33.8239 23.1639 33.5557 23.349 33.2786 23.52Z" fill="#3762CC"/>
<path d="M28.3341 24.9237C23.128 24.9237 18.8927 20.6882 18.8927 15.4821C18.8927 10.276 23.1281 6.04071 28.3341 6.04071C33.54 6.04071 37.7755 10.2762 37.7755 15.4821C37.7755 20.688 33.5402 24.9237 28.3341 24.9237ZM28.3341 6.74384C23.5157 6.74384 19.5958 10.6638 19.5958 15.4821C19.5958 20.3004 23.5157 24.2205 28.3341 24.2205C33.1524 24.2205 37.0723 20.3004 37.0723 15.4821C37.0723 10.6638 33.1524 6.74384 28.3341 6.74384Z" fill="#3762CC"/>
</svg>
