<svg width="43" height="41" viewBox="0 0 43 41" fill="none" xmlns="http://www.w3.org/2000/svg">
<path d="M36.1494 8.23518C36.0526 8.03708 35.8513 7.91139 35.6309 7.91139H23.0073H19.8833H7.25976C7.03933 7.91139 6.83806 8.03708 6.74121 8.23518L1.72546 18.4966H19.8835H23.0075H41.1655L36.1494 8.23518Z" fill="#4671C6"/>
<path d="M40.7805 21.0937H2.11007C1.89755 21.0937 1.72528 20.9215 1.72528 20.709V18.4964H41.1651V20.709C41.1653 20.9215 40.9931 21.0937 40.7805 21.0937Z" fill="#A4C9FF"/>
<path d="M41.1653 18.848H1.72529C1.604 18.848 1.49132 18.7856 1.42716 18.6826C1.363 18.5795 1.35632 18.4511 1.40941 18.3419L6.42515 8.08049C6.57984 7.76408 6.90732 7.55965 7.25958 7.55965H35.6307C35.9829 7.55965 36.3104 7.76408 36.4651 8.08049L41.4809 18.3419C41.5341 18.4509 41.5274 18.5795 41.4631 18.6826C41.3988 18.7856 41.2866 18.848 41.1653 18.848ZM2.28867 18.1448H40.602L35.8337 8.38951C35.7961 8.31252 35.7166 8.26295 35.631 8.26295H7.25976C7.17415 8.26295 7.0947 8.31252 7.05708 8.38951L2.28867 18.1448Z" fill="#3762CC"/>
<path d="M40.7804 21.4453H2.11025C1.70402 21.4453 1.3739 21.115 1.3739 20.709V18.4966C1.3739 18.3025 1.5314 18.145 1.72546 18.145H41.1653C41.3594 18.145 41.5169 18.3025 41.5169 18.4966V20.709C41.5169 21.1148 41.1866 21.4453 40.7804 21.4453ZM2.07685 18.848V20.7088C2.07685 20.7271 2.09179 20.742 2.11007 20.742H40.7802C40.7985 20.742 40.8134 20.7271 40.8134 20.7088V18.848H2.07685Z" fill="#3762CC"/>
<path d="M13.893 15.243V15.4084C13.893 16.0625 14.4234 16.5929 15.0774 16.5929C15.7315 16.5929 16.2619 16.0625 16.2619 15.4084V11.8577C16.2808 11.8389 16.306 11.8269 16.3346 11.8269H26.5561C26.6089 11.8269 26.6525 11.8659 26.6607 11.918C26.8416 13.0467 27.8181 13.9092 28.9977 13.9092C29.4709 13.9092 29.9109 13.77 30.2802 13.5304C30.5789 13.3367 30.9862 13.4193 31.1741 13.7217C31.5824 14.3785 32.3035 14.8198 33.1293 14.8391V16.0384C33.1293 16.7992 33.7034 17.4633 34.4624 17.5126C35.2942 17.5663 35.9857 16.9077 35.9857 16.0875V15.8442C36.3357 16.0381 36.7397 16.1466 37.1702 16.1393C38.3082 16.1202 39.2305 15.2689 39.4474 14.1855C39.4961 13.9421 39.4579 13.6888 39.349 13.4657L36.6679 7.98169C36.4742 7.58548 36.0719 7.33429 35.6308 7.33429H7.25956C6.81871 7.33429 6.41617 7.58548 6.22263 7.98169L3.75484 13.0301C3.5606 13.4274 3.59945 13.9097 3.88316 14.249C4.31699 14.7676 4.9679 15.0975 5.69722 15.0975C5.71533 15.0975 5.73273 15.0952 5.75066 15.0949V17.2341C5.75066 17.8975 6.26183 18.476 6.92488 18.4959C7.61095 18.5164 8.17363 17.9664 8.17363 17.2849V16.0694C8.60693 16.5449 9.22902 16.8451 9.923 16.8451C11.0348 16.8451 11.9677 16.0792 12.2227 15.0462C12.3082 14.7002 12.5954 14.4417 12.9494 14.4012C13.4523 14.3437 13.893 14.737 13.893 15.243Z" fill="#E0EBFC"/>
<path d="M6.96284 18.848C6.94667 18.848 6.9305 18.8478 6.9145 18.8473C6.07902 18.8223 5.39927 18.0986 5.39927 17.2341V15.4327C4.70616 15.3566 4.06738 15.0168 3.61368 14.4745C3.24718 14.0363 3.17863 13.4088 3.43913 12.8758L5.90693 7.82718C6.15777 7.31425 6.68862 6.98273 7.25956 6.98273H35.6308C36.2019 6.98273 36.733 7.31425 36.9836 7.82736L39.6645 13.3114C39.809 13.6074 39.8543 13.9423 39.7917 14.2546C39.5367 15.5292 38.4365 16.4696 37.1758 16.4909C36.8829 16.4967 36.5924 16.4533 36.315 16.3661C36.2529 16.7537 36.0634 17.1151 35.7743 17.3863C35.4116 17.7263 34.937 17.8965 34.4396 17.8634C33.5076 17.8031 32.7775 17.0016 32.7775 16.0386V15.1611C31.995 15.0437 31.3003 14.5911 30.8754 13.9075C30.8366 13.8452 30.7743 13.8016 30.6996 13.7851C30.6223 13.7679 30.5383 13.7825 30.4713 13.8255C30.0322 14.1105 29.5228 14.2609 28.9977 14.2609C27.7251 14.2609 26.6445 13.3968 26.3543 12.1785H16.6132V15.4084C16.6132 16.2554 15.9242 16.9444 15.0774 16.9444C14.2305 16.9444 13.5415 16.2554 13.5415 15.4084V15.2432C13.5415 15.1 13.4826 14.9686 13.3759 14.8734C13.2692 14.7781 13.1326 14.7347 12.9897 14.7509C12.7824 14.7744 12.6156 14.9235 12.5645 15.1307C12.2641 16.3473 11.1781 17.197 9.92353 17.197C9.42818 17.197 8.94495 17.0596 8.52571 16.8075V17.2853C8.52571 17.7117 8.35714 18.11 8.05111 18.4071C7.7565 18.6924 7.37171 18.848 6.96284 18.848ZM5.75083 14.7433C5.84241 14.7433 5.93066 14.7792 5.9964 14.8433C6.06407 14.9094 6.10239 15.0003 6.10239 15.0949V17.2341C6.10239 17.7223 6.47611 18.1308 6.93542 18.1445C7.17097 18.152 7.3928 18.0656 7.5612 17.9021C7.7296 17.7386 7.82224 17.5194 7.82224 17.2849V16.0694C7.82224 15.9242 7.91154 15.7939 8.04671 15.7416C8.18206 15.6893 8.3357 15.7252 8.43361 15.8326C8.81628 16.2527 9.35927 16.4935 9.92318 16.4935C10.8536 16.4935 11.6588 15.8637 11.8817 14.962C12.0021 14.4742 12.4151 14.1085 12.9099 14.0519C13.2477 14.0133 13.5893 14.1214 13.8438 14.3485C14.0983 14.5758 14.2444 14.9018 14.2444 15.243V15.4083C14.2444 15.8674 14.6181 16.2411 15.0773 16.2411C15.5364 16.2411 15.9099 15.8676 15.9099 15.4083V11.8577C15.9099 11.7636 15.9477 11.6734 16.0147 11.6074C16.101 11.5223 16.2146 11.4753 16.3344 11.4753H26.5558C26.7815 11.4753 26.9713 11.6379 27.0075 11.8621C27.165 12.8447 28.0017 13.5576 28.9974 13.5576C29.3862 13.5576 29.7633 13.4462 30.0884 13.2354C30.3124 13.0902 30.591 13.0403 30.8526 13.0987C31.1127 13.1569 31.3328 13.3121 31.472 13.5362C31.8325 14.1161 32.455 14.4717 33.137 14.4877C33.3279 14.4921 33.4803 14.6482 33.4803 14.8393V16.0386C33.4803 16.6319 33.9215 17.1253 34.4846 17.1619C34.7883 17.1817 35.0738 17.0789 35.2932 16.8732C35.5127 16.6674 35.6338 16.3883 35.6338 16.0875V15.8442C35.6338 15.7198 35.6997 15.6044 35.8068 15.5413C35.9144 15.4781 36.0467 15.4765 36.1555 15.5368C36.463 15.7069 36.805 15.7917 37.1638 15.788C38.0962 15.7723 38.9113 15.0694 39.102 14.1166C39.1345 13.9546 39.1097 13.7784 39.0324 13.6202L36.3515 8.1362C36.2178 7.86269 35.9348 7.68585 35.6303 7.68585H7.25956C6.95529 7.68585 6.67228 7.86251 6.53851 8.13603L4.07072 13.1845C3.93202 13.4685 3.96437 13.7978 4.15298 14.0233C4.53724 14.4824 5.10009 14.7458 5.69722 14.7458C5.71568 14.7443 5.72904 14.7435 5.74239 14.7431C5.74538 14.7433 5.74802 14.7433 5.75083 14.7433Z" fill="#3762CC"/>
<path d="M39.2412 21.0938H3.64923V38.2054H39.2412V21.0938Z" fill="#F9CFCF"/>
<path d="M39.2414 38.5569H3.64941C3.45535 38.5569 3.29785 38.3994 3.29785 38.2054V21.0938C3.29785 20.8997 3.45535 20.7422 3.64941 20.7422H39.2414C39.4355 20.7422 39.593 20.8997 39.593 21.0938V38.2054C39.593 38.3994 39.4357 38.5569 39.2414 38.5569ZM4.00098 37.8538H38.8899V21.4453H4.00098V37.8538Z" fill="#3762CC"/>
<path d="M42.0117 40.2539H0.878906C0.587637 40.2539 0.351562 40.0178 0.351562 39.7266V38.7327C0.351562 38.4414 0.587637 38.2054 0.878906 38.2054H42.0117C42.303 38.2054 42.5391 38.4414 42.5391 38.7327V39.7266C42.5391 40.0178 42.303 40.2539 42.0117 40.2539Z" fill="#E0EBFC"/>
<path d="M36.3704 35.286H31.5606C31.1356 35.286 30.7911 34.9414 30.7911 34.5164V28.4562C30.7911 28.0311 31.1356 27.6866 31.5606 27.6866H36.3704C36.7954 27.6866 37.1399 28.0311 37.1399 28.4562V34.5164C37.1399 34.9414 36.7952 35.286 36.3704 35.286Z" fill="#F9A7A7"/>
<path d="M35.9856 34.1317V28.841H31.9454V34.1317H35.9856Z" fill="#A4C9FF"/>
<path d="M11.3301 35.286H6.52024C6.0952 35.286 5.75067 34.9414 5.75067 34.5164V28.4562C5.75067 28.0311 6.0952 27.6866 6.52024 27.6866H11.33C11.755 27.6866 12.0995 28.0311 12.0995 28.4562V34.5164C12.0995 34.9414 11.755 35.286 11.3301 35.286Z" fill="#F9A7A7"/>
<path d="M10.9453 34.1316L10.9453 28.841H6.90509L6.90509 34.1316H10.9453Z" fill="#A4C9FF"/>
<path d="M8.92511 34.4834C8.73105 34.4834 8.57355 34.3259 8.57355 34.1318V28.841C8.57355 28.6469 8.73105 28.4894 8.92511 28.4894C9.11917 28.4894 9.27667 28.6469 9.27667 28.841V34.1318C9.27667 34.3259 9.11935 34.4834 8.92511 34.4834Z" fill="#3762CC"/>
<path d="M10.9454 31.8379H6.90503C6.71097 31.8379 6.55347 31.6804 6.55347 31.4863C6.55347 31.2922 6.71097 31.1347 6.90503 31.1347H10.9452C11.1392 31.1347 11.2967 31.2922 11.2967 31.4863C11.2967 31.6804 11.1394 31.8379 10.9454 31.8379Z" fill="#3762CC"/>
<path d="M33.9655 34.4832C33.7715 34.4832 33.614 34.3257 33.614 34.1316V28.841C33.614 28.6469 33.7715 28.4894 33.9655 28.4894C34.1596 28.4894 34.3171 28.6469 34.3171 28.841V34.1316C34.3171 34.3259 34.1596 34.4832 33.9655 34.4832Z" fill="#3762CC"/>
<path d="M35.9856 31.8379H31.9454C31.7514 31.8379 31.5939 31.6804 31.5939 31.4863C31.5939 31.2922 31.7514 31.1347 31.9454 31.1347H35.9856C36.1797 31.1347 36.3372 31.2922 36.3372 31.4863C36.3372 31.6804 36.1797 31.8379 35.9856 31.8379Z" fill="#3762CC"/>
<path d="M11.33 35.6375H6.52043C5.9022 35.6375 5.39929 35.1346 5.39929 34.5164V28.4562C5.39929 27.8379 5.9022 27.335 6.52043 27.335H11.33C11.9482 27.335 12.4511 27.8379 12.4511 28.4562V34.5164C12.4511 35.1346 11.9482 35.6375 11.33 35.6375ZM6.52043 28.0382C6.2898 28.0382 6.10242 28.2257 6.10242 28.4562V34.5164C6.10242 34.7469 6.2898 34.9344 6.52043 34.9344H11.33C11.5606 34.9344 11.748 34.7469 11.748 34.5164V28.4562C11.748 28.2257 11.5606 28.0382 11.33 28.0382H6.52043Z" fill="#3762CC"/>
<path d="M10.9454 34.4834H6.90503C6.71097 34.4834 6.55347 34.3259 6.55347 34.1318V28.841C6.55347 28.6469 6.71097 28.4894 6.90503 28.4894H10.9452C11.1392 28.4894 11.2967 28.6469 11.2967 28.841V34.1318C11.2969 34.3259 11.1394 34.4834 10.9454 34.4834ZM7.25659 33.7802H10.5936V29.1925H7.25659V33.7802Z" fill="#3762CC"/>
<path d="M36.3702 35.6375H31.5606C30.9424 35.6375 30.4395 35.1346 30.4395 34.5164V28.4562C30.4395 27.8379 30.9424 27.335 31.5606 27.335H36.3702C36.9884 27.335 37.4913 27.8379 37.4913 28.4562V34.5164C37.4913 35.1346 36.9884 35.6375 36.3702 35.6375ZM31.5606 28.0382C31.33 28.0382 31.1426 28.2257 31.1426 28.4562V34.5164C31.1426 34.7469 31.33 34.9344 31.5606 34.9344H36.3702C36.6008 34.9344 36.7882 34.7469 36.7882 34.5164V28.4562C36.7882 28.2257 36.6008 28.0382 36.3702 28.0382H31.5606Z" fill="#3762CC"/>
<path d="M35.9856 34.4834H31.9454C31.7514 34.4834 31.5939 34.3259 31.5939 34.1318V28.841C31.5939 28.6469 31.7514 28.4894 31.9454 28.4894H35.9856C36.1797 28.4894 36.3372 28.6469 36.3372 28.841V34.1318C36.3372 34.3259 36.1797 34.4834 35.9856 34.4834ZM32.2968 33.7802H35.6339V29.1925H32.2968V33.7802Z" fill="#3762CC"/>
<path d="M42.0117 40.6055H0.878906C0.394277 40.6055 0 40.2112 0 39.7266V38.7327C0 38.2481 0.394277 37.8538 0.878906 37.8538H42.0117C42.4963 37.8538 42.8906 38.2481 42.8906 38.7327V39.7266C42.8906 40.2112 42.4963 40.6055 42.0117 40.6055ZM0.878906 38.5569C0.781875 38.5569 0.703125 38.6358 0.703125 38.7327V39.7266C0.703125 39.8234 0.781875 39.9023 0.878906 39.9023H42.0117C42.1087 39.9023 42.1875 39.8234 42.1875 39.7266V38.7327C42.1875 38.6358 42.1087 38.5569 42.0117 38.5569H0.878906Z" fill="#3762CC"/>
<path d="M11.5555 26.3834L10.8617 25.5589C10.7367 25.4104 10.7557 25.1886 10.9044 25.0636L11.4158 24.6335L11.4319 24.6189L21.2287 16.4007C21.3595 16.2911 21.5499 16.2911 21.6807 16.4007L32.0015 25.061C32.1502 25.1858 32.1697 25.4076 32.0449 25.5563L30.6719 27.1925C30.5471 27.3412 30.3252 27.3607 30.1765 27.2357L21.6791 20.1053C21.5483 19.9956 21.3578 19.9956 21.2272 20.1053L12.7297 27.2357C12.581 27.3605 12.3592 27.3412 12.2344 27.1925L11.5555 26.3834Z" fill="#4671C6"/>
<path d="M30.4014 27.6697C30.2365 27.6697 30.0785 27.6124 29.9507 27.505L21.4534 20.3748L12.9558 27.5052C12.6589 27.7544 12.2143 27.7154 11.9653 27.4185L10.5928 25.7853C10.4718 25.6417 10.414 25.4594 10.4302 25.2724C10.4463 25.0854 10.5342 24.9158 10.6778 24.7948L11.1959 24.3582L21.0027 16.1314C21.2643 15.9117 21.6445 15.9117 21.9066 16.1314L32.2274 24.7918C32.3713 24.9126 32.4594 25.082 32.4759 25.2693C32.4923 25.4563 32.4348 25.6387 32.314 25.7825L30.941 27.4187C30.8203 27.5625 30.6508 27.6507 30.4636 27.6673C30.443 27.6688 30.4221 27.6697 30.4014 27.6697ZM21.4532 19.6713C21.6137 19.6713 21.7742 19.7263 21.9052 19.8362L30.4026 26.9666L31.7756 25.3302L21.455 16.67L11.1308 25.3325L11.8246 26.1569C11.8248 26.1569 11.8248 26.1571 11.825 26.1573L12.504 26.9664L21.0015 19.836C21.1322 19.7262 21.2927 19.6713 21.4532 19.6713Z" fill="#3762CC"/>
<path d="M32.3251 23.7263L21.9068 14.9841C21.7804 14.8781 21.6199 14.8196 21.455 14.8196C21.2901 14.8196 21.1295 14.8781 21.0029 14.9841L11.6714 22.8154C11.3806 23.0593 11.2138 23.4171 11.2138 23.7967C11.2138 23.8971 11.2349 23.9941 11.2764 24.085C11.3891 24.3313 11.6371 24.4904 11.9081 24.4904C12.0707 24.4904 12.2289 24.4325 12.3541 24.3274L16.8632 20.5339V20.7687C16.8632 21.0874 17.0795 21.3769 17.3918 21.44C17.8216 21.5269 18.199 21.2006 18.199 20.7861V19.4099L21.455 16.6707L25.0873 19.7184C25.2227 19.832 25.3007 19.9995 25.3007 20.1762V21.4279C25.3007 21.7466 25.517 22.0361 25.8293 22.0992C26.2591 22.1861 26.6365 21.8598 26.6365 21.4455V21.2864C26.6365 21.1802 26.7604 21.1226 26.8418 21.1908L27.4101 21.6677V23.2298C27.4101 23.5485 27.6263 23.8381 27.9387 23.9012C28.3685 23.988 28.7459 23.6617 28.7459 23.2473V22.7885L31.4311 25.0415C31.5468 25.1385 31.693 25.1919 31.8433 25.1919C32.1297 25.1919 32.3842 24.9998 32.4635 24.7208C32.4673 24.7057 32.4712 24.6904 32.4735 24.6785L32.5415 24.3476C32.5892 24.1161 32.5062 23.878 32.3251 23.7263Z" fill="#E0EBFC"/>
<path d="M31.8435 25.5435C31.6109 25.5435 31.3844 25.4609 31.2054 25.3107L29.0626 23.513C29.008 23.7166 28.8907 23.8996 28.7234 24.0367C28.4856 24.2311 28.1735 24.3072 27.8694 24.2459C27.3998 24.1508 27.0589 23.7236 27.0589 23.2298V21.8315L26.9461 21.7369C26.8888 21.9301 26.7743 22.1036 26.614 22.2349C26.3762 22.4293 26.0642 22.5056 25.7601 22.4441C25.2904 22.349 24.9495 21.9219 24.9495 21.4281V20.1763C24.9495 20.1034 24.9174 20.0348 24.8616 19.9881L21.4557 17.1302L18.5509 19.5738V20.7863C18.5509 21.0934 18.4147 21.381 18.1767 21.5756C17.9389 21.77 17.627 21.8464 17.3227 21.7847C17.0016 21.7197 16.7406 21.4995 16.6077 21.2087L12.5805 24.5965C12.3921 24.7549 12.1534 24.8421 11.9083 24.8421C11.5 24.8421 11.1266 24.6023 10.957 24.2313C10.8942 24.0942 10.8624 23.9479 10.8624 23.7967C10.8624 23.3128 11.0749 22.857 11.4455 22.5461L20.7768 14.7148C21.1576 14.3963 21.7542 14.3968 22.1328 14.7148L32.5512 23.457C32.8314 23.6918 32.9597 24.0602 32.8861 24.4183L32.818 24.7491C32.8157 24.7616 32.8101 24.7855 32.804 24.8091C32.6804 25.2446 32.2863 25.5435 31.8435 25.5435ZM28.7461 22.4369C28.8271 22.4369 28.9074 22.465 28.9719 22.5192L31.6572 24.7721C31.7097 24.8161 31.7758 24.8405 31.8435 24.8405C31.9734 24.8405 32.0894 24.7519 32.1255 24.6248L32.1972 24.277C32.2186 24.1722 32.181 24.0645 32.0991 23.9957L21.6807 15.2536C21.5543 15.1474 21.3553 15.1476 21.2284 15.2538L11.8973 23.0848C11.6863 23.2618 11.5652 23.5213 11.5652 23.7969C11.5652 23.8465 11.5756 23.8943 11.5961 23.9391C11.6515 24.0606 11.7742 24.1392 11.908 24.1392C11.9878 24.1392 12.0658 24.1105 12.1279 24.0587L16.6368 20.2653C16.7414 20.1772 16.8877 20.1579 17.0114 20.2155C17.1354 20.2732 17.2146 20.3975 17.2146 20.5342V20.7691C17.2146 20.9269 17.3208 21.0674 17.4613 21.0959C17.5943 21.1226 17.6873 21.0672 17.7309 21.0317C17.8047 20.9712 17.8471 20.8818 17.8471 20.7865V19.4103C17.8471 19.3066 17.893 19.2081 17.9724 19.1413L21.2284 16.4021C21.3589 16.2923 21.5498 16.2919 21.6805 16.4018L25.3127 19.4493C25.5284 19.63 25.652 19.8951 25.652 20.1763V21.4281C25.652 21.5859 25.7581 21.7264 25.8986 21.7549C26.0318 21.7818 26.1246 21.7262 26.1682 21.6907C26.2421 21.6302 26.2844 21.5408 26.2844 21.4455V21.2864C26.2844 21.0992 26.3899 20.9338 26.5593 20.8545C26.7293 20.7754 26.9236 20.8009 27.0672 20.9213L27.6355 21.398C27.7151 21.4648 27.7612 21.5634 27.7612 21.6673V23.2295C27.7612 23.3873 27.8673 23.5278 28.0078 23.5563C28.141 23.583 28.2338 23.5276 28.2774 23.4921C28.3513 23.4316 28.3936 23.3422 28.3936 23.2469V22.7881C28.3936 22.6515 28.4727 22.5272 28.5965 22.4694C28.645 22.4476 28.6956 22.4369 28.7461 22.4369Z" fill="#3762CC"/>
<path d="M21.6793 20.1053C21.5485 19.9956 21.3579 19.9956 21.2273 20.1053L14.2012 26.0012V38.2054H28.6896V25.9933L27.9285 25.3491L21.6793 20.1053Z" fill="#A4C9FF"/>
<path d="M28.6894 38.5569H14.2012C14.0071 38.5569 13.8496 38.3994 13.8496 38.2054V26.0012C13.8496 25.8973 13.8957 25.7987 13.9753 25.7319L21.0014 19.836C21.263 19.6165 21.6434 19.6165 21.9051 19.8359C21.9053 19.8359 21.9053 19.836 21.9053 19.836L28.1543 25.0798L28.9167 25.7251C28.9956 25.7919 29.0412 25.8899 29.0412 25.9933V38.2054C29.041 38.3994 28.8835 38.5569 28.6894 38.5569ZM14.5527 37.8538H28.3379V26.1564L27.7012 25.6175L21.4532 20.3746L14.5527 26.1652V37.8538Z" fill="#3762CC"/>
<path d="M25.2932 38.2054H17.5975V30.0584C17.5975 27.9334 19.3201 26.2106 21.4453 26.2106C23.5703 26.2106 25.2932 27.9332 25.2932 30.0584V38.2054Z" fill="#4671C6"/>
<path d="M19.3611 32.927C19.7684 32.927 20.0986 32.5968 20.0986 32.1894C20.0986 31.7821 19.7684 31.4518 19.3611 31.4518C18.9537 31.4518 18.6235 31.7821 18.6235 32.1894C18.6235 32.5968 18.9537 32.927 19.3611 32.927Z" fill="#F9CFCF"/>
<path d="M25.2932 38.5569H17.5975C17.4034 38.5569 17.2459 38.3994 17.2459 38.2054V30.0584C17.2459 27.7429 19.1298 25.859 21.4453 25.859C23.7609 25.859 25.6447 27.7429 25.6447 30.0584V38.2054C25.6447 38.3994 25.4872 38.5569 25.2932 38.5569ZM17.949 37.8538H24.9414V30.0584C24.9414 28.1306 23.3729 26.5621 21.4451 26.5621C19.5174 26.5621 17.9489 28.1305 17.9489 30.0584V37.8538H17.949Z" fill="#3762CC"/>
<path d="M14.3594 9.12023L13.9488 8.63226C13.8118 8.46966 13.8328 8.22691 13.9955 8.08997L14.2596 7.86796L14.271 7.85741L21.1955 2.04872C21.3386 1.92866 21.5471 1.92866 21.6902 2.04872L28.8877 8.08804C29.0505 8.22462 29.0718 8.46737 28.9352 8.63015L28.124 9.59695C27.9874 9.75972 27.7446 9.78099 27.5818 9.64441L21.6891 4.69968C21.546 4.57962 21.3376 4.57962 21.1945 4.69968L15.3018 9.64441C15.139 9.78099 14.8962 9.75972 14.7597 9.59695L14.3594 9.12023Z" fill="#4671C6"/>
<path d="M27.8279 10.0862C27.6555 10.0862 27.4897 10.0262 27.3558 9.91407L21.4633 4.96934C21.4506 4.9588 21.4327 4.9588 21.4204 4.96934L15.5278 9.91407C15.2169 10.1748 14.7516 10.1343 14.4905 9.82319L13.68 8.85868C13.5533 8.70821 13.493 8.51749 13.5099 8.32132C13.5267 8.12532 13.6188 7.94778 13.7693 7.82104L14.0335 7.59886L20.97 1.77944C21.2442 1.54934 21.6426 1.54952 21.9164 1.77944L29.1138 7.81876C29.4249 8.07962 29.4657 8.54491 29.205 8.85604L28.3936 9.82284C28.2672 9.97348 28.0897 10.0659 27.8937 10.083C27.8715 10.0851 27.8496 10.0862 27.8279 10.0862ZM21.4427 2.3103C21.4351 2.3103 21.4276 2.31294 21.4214 2.31803L14.2216 8.35911C14.2077 8.37089 14.2058 8.3918 14.2177 8.40587L14.6284 8.89384C14.6285 8.89384 14.6285 8.89401 14.6287 8.89419L15.029 9.37108C15.0407 9.38532 15.062 9.38673 15.0759 9.37512L20.9684 4.43057C21.2427 4.20065 21.6406 4.2003 21.9152 4.43057L27.8076 9.37512C27.8193 9.38514 27.8443 9.38303 27.8543 9.37126L28.6657 8.40446C28.6773 8.39057 28.6757 8.36948 28.6617 8.3577L21.4643 2.31839C21.458 2.31294 21.4504 2.3103 21.4427 2.3103Z" fill="#3762CC"/>
<path d="M30.3781 7.62434L21.916 0.523828C21.7837 0.412734 21.6155 0.351562 21.4428 0.351562C21.27 0.351562 21.1018 0.412734 20.9695 0.523828L14.2344 6.1766C14.0073 6.36732 13.8445 6.63117 13.7761 6.9198C13.7041 7.22373 13.7373 7.54682 13.8697 7.82965L13.9161 7.92844L13.9041 8.20354C13.9266 8.16135 13.9567 8.1225 13.9955 8.08998L14.2595 7.86797L14.271 7.85742L14.7426 7.46174V7.72559C14.7426 8.09455 15.0416 8.39355 15.4106 8.39355C15.7793 8.39355 16.0785 8.09455 16.0785 7.72559V6.34113L16.5006 5.98711V6.31916C16.5006 6.68812 16.7996 6.98713 17.1685 6.98713C17.5373 6.98713 17.8365 6.68812 17.8365 6.31916V4.86686L21.1959 2.04891C21.339 1.92885 21.5474 1.92885 21.6905 2.04891L28.8881 8.08822C29.0508 8.2248 29.0721 8.46756 28.9355 8.63033L28.9299 8.63701L29.2776 8.93127C29.4316 9.0617 29.6274 9.13342 29.8292 9.13342C29.8292 9.13342 29.8292 9.13342 29.8294 9.13342C30.0827 9.13342 30.3214 9.02215 30.4841 8.82826C30.6307 8.65353 30.7005 8.43205 30.6808 8.20459C30.6605 7.97713 30.5531 7.77111 30.3781 7.62434Z" fill="#E0EBFC"/>
<path d="M30.3781 7.62434L21.916 0.523828C21.7837 0.412734 21.6155 0.351562 21.4428 0.351562C21.27 0.351562 21.1018 0.412734 20.9695 0.523828L14.2344 6.1766C14.0073 6.36732 13.8445 6.63117 13.7761 6.9198C13.7041 7.22373 13.7373 7.54682 13.8697 7.82965L13.9161 7.92844L13.9041 8.20354C13.9266 8.16135 13.9567 8.1225 13.9955 8.08998L14.2595 7.86797L14.271 7.85742L14.7426 7.46174V7.72559C14.7426 8.09455 15.0416 8.39355 15.4106 8.39355C15.7793 8.39355 16.0785 8.09455 16.0785 7.72559V6.34113L16.5006 5.98711V6.31916C16.5006 6.68812 16.7996 6.98713 17.1685 6.98713C17.5373 6.98713 17.8365 6.68812 17.8365 6.31916V4.86686L21.1959 2.04891C21.339 1.92885 21.5474 1.92885 21.6905 2.04891L28.8881 8.08822C29.0508 8.2248 29.0721 8.46756 28.9355 8.63033L28.9299 8.63701L29.2776 8.93127C29.4316 9.0617 29.6274 9.13342 29.8292 9.13342C29.8292 9.13342 29.8292 9.13342 29.8294 9.13342C30.0827 9.13342 30.3214 9.02215 30.4841 8.82826C30.6307 8.65353 30.7005 8.43205 30.6808 8.20459C30.6605 7.97713 30.5531 7.77111 30.3781 7.62434Z" fill="#E0EBFC"/>
<path d="M29.8289 9.48498C29.5439 9.48498 29.2672 9.38355 29.0498 9.19934L28.7021 8.90525C28.6311 8.84496 28.5866 8.759 28.5789 8.66602C28.5711 8.5732 28.6007 8.48092 28.661 8.40973C28.6756 8.39232 28.6735 8.36754 28.6615 8.35752L21.4641 2.31803C21.4515 2.30748 21.4337 2.30766 21.4214 2.31803L18.1877 5.03068V6.31951C18.1877 6.88166 17.7304 7.33904 17.1684 7.33904C16.8782 7.33904 16.6157 7.21705 16.4299 7.02176V7.72576C16.4299 8.28791 15.9726 8.74529 15.4106 8.74529C14.9964 8.74529 14.6391 8.49691 14.4796 8.14131L14.2216 8.3591C14.1443 8.50394 13.9732 8.58111 13.815 8.53769C13.6568 8.49445 13.5457 8.35225 13.5529 8.18824L13.5612 7.99945L13.5515 7.97889C13.3856 7.62416 13.3437 7.21934 13.4341 6.83859C13.5199 6.47684 13.7238 6.14619 14.0085 5.9073L20.7434 0.254707C20.9389 0.0905272 21.1873 0 21.4429 0C21.6981 0 21.9465 0.0903516 22.1421 0.254531L30.6042 7.35504C30.851 7.56211 31.0026 7.85303 31.0307 8.174C31.0586 8.49516 30.96 8.80752 30.7531 9.05414C30.5234 9.32801 30.1866 9.48498 29.8289 9.48498ZM29.3599 8.54068L29.5042 8.66285C29.709 8.83635 30.0426 8.80699 30.2142 8.60221C30.3005 8.49938 30.3416 8.36895 30.33 8.235C30.3184 8.10141 30.2551 7.98012 30.1521 7.89398L21.69 0.793476C21.5517 0.677285 21.3337 0.677461 21.1954 0.793476L14.4607 6.4459C14.291 6.58828 14.1696 6.78551 14.1184 7.00102C14.078 7.17188 14.0818 7.35064 14.1286 7.51887L14.5169 7.19262C14.6217 7.10473 14.7676 7.08557 14.8915 7.1434C15.0152 7.20123 15.0944 7.32533 15.0944 7.46209V7.72594C15.0944 7.90031 15.2364 8.04234 15.4108 8.04234C15.5851 8.04234 15.727 7.90031 15.727 7.72594V6.34148C15.727 6.2376 15.773 6.13898 15.8527 6.07201L16.2747 5.71799C16.3797 5.63027 16.5254 5.61129 16.6493 5.66877C16.7731 5.7266 16.8522 5.8507 16.8522 5.98746V6.31969C16.8522 6.49406 16.9942 6.63609 17.1686 6.63609C17.3429 6.63609 17.4848 6.49406 17.4848 6.31969V4.86686C17.4848 4.76297 17.5309 4.66436 17.6105 4.59756L20.9698 1.77961C21.2441 1.54951 21.6422 1.54951 21.9164 1.77979L29.1136 7.8191C29.2643 7.94549 29.3569 8.12303 29.3739 8.31902C29.3804 8.39426 29.3755 8.46879 29.3599 8.54068Z" fill="#3762CC"/>
<path d="M21.6891 4.69969C21.546 4.57964 21.3375 4.57964 21.1944 4.69969L16.2592 8.8411V14.2923C16.2592 14.5835 16.4953 14.8196 16.7866 14.8196H26.0991C26.3904 14.8196 26.6264 14.5835 26.6264 14.2923V8.84268L21.6891 4.69969Z" fill="#F9CFCF"/>
<path d="M23.7305 13.2608H19.1602C18.9659 13.2608 18.8086 13.1034 18.8086 12.9092V9.82353C18.8086 8.36736 19.9891 7.18681 21.4453 7.18681C22.9015 7.18681 24.082 8.36736 24.082 9.82353V12.9092C24.082 13.1034 23.9247 13.2608 23.7305 13.2608Z" fill="#A4C9FF"/>
<path d="M21.4453 13.6123C21.2512 13.6123 21.0938 13.4548 21.0938 13.2608V7.18681C21.0938 6.99275 21.2512 6.83525 21.4453 6.83525C21.6394 6.83525 21.7969 6.99275 21.7969 7.18681V13.2608C21.7969 13.455 21.6394 13.6123 21.4453 13.6123Z" fill="#3762CC"/>
<path d="M24.082 10.5753H18.8086C18.6145 10.5753 18.457 10.4178 18.457 10.2238C18.457 10.0297 18.6145 9.87222 18.8086 9.87222H24.082C24.2761 9.87222 24.4336 10.0297 24.4336 10.2238C24.4336 10.4178 24.2761 10.5753 24.082 10.5753Z" fill="#3762CC"/>
<path d="M23.7305 13.6123H19.1602C18.7724 13.6123 18.457 13.297 18.457 12.9092V9.82353C18.457 8.17576 19.7975 6.83525 21.4453 6.83525C23.0931 6.83525 24.4336 8.17576 24.4336 9.82353V12.9092C24.4336 13.297 24.1182 13.6123 23.7305 13.6123ZM21.4453 7.53838C20.1853 7.53838 19.1602 8.56353 19.1602 9.82353V12.9092H23.731L23.7305 9.82353C23.7305 8.56353 22.7053 7.53838 21.4453 7.53838Z" fill="#3762CC"/>
<path d="M26.0991 15.1711H16.7864C16.3017 15.1711 15.9075 14.7769 15.9075 14.2922V8.84109C15.9075 8.7372 15.9535 8.63859 16.0332 8.57179L20.9684 4.43039C21.2428 4.20029 21.6409 4.20029 21.915 4.43039L26.8523 8.57337C26.9319 8.64017 26.978 8.73878 26.978 8.84267V14.2922C26.978 14.7769 26.5835 15.1711 26.0991 15.1711ZM16.6106 9.00492V14.2922C16.6106 14.3891 16.6893 14.468 16.7864 14.468H26.0991C26.1961 14.468 26.2749 14.3891 26.2749 14.2922V9.00667L21.4632 4.96898C21.4511 4.95861 21.4328 4.95843 21.4203 4.96898L16.6106 9.00492Z" fill="#3762CC"/>
</svg>
