<svg width="18" height="19" viewBox="0 0 18 19" fill="none" xmlns="http://www.w3.org/2000/svg">
<path fill-rule="evenodd" clip-rule="evenodd" d="M2.22594e-07 2.00382C2.22594e-07 1.60498 0.158438 1.22248 0.440458 0.94046C0.722479 0.658439 1.10498 0.500002 1.50382 0.500002H16.4945C16.6922 0.499679 16.888 0.538344 17.0707 0.613784C17.2533 0.689223 17.4194 0.799955 17.5592 0.939641C17.699 1.07933 17.81 1.24522 17.8856 1.42783C17.9612 1.61044 18.0001 1.80617 18 2.00382V16.9945C18.0002 17.1922 17.9614 17.388 17.8859 17.5707C17.8104 17.7534 17.6996 17.9194 17.5598 18.0593C17.4201 18.1991 17.2541 18.31 17.0715 18.3856C16.8888 18.4612 16.6931 18.5001 16.4954 18.5H1.50382C1.30627 18.5 1.11065 18.4611 0.928143 18.3855C0.745638 18.3098 0.579822 18.199 0.440169 18.0593C0.300516 17.9195 0.189762 17.7536 0.114237 17.5711C0.0387108 17.3886 -0.00010726 17.1929 2.22594e-07 16.9954V2.00382ZM7.12473 7.36291H9.56209V8.58691C9.91391 7.88327 10.8139 7.25 12.1664 7.25C14.7592 7.25 15.3736 8.65155 15.3736 11.2231V15.9865H12.7497V11.8089C12.7497 10.3444 12.3979 9.518 11.5045 9.518C10.2649 9.518 9.74945 10.409 9.74945 11.8089V15.9865H7.12473V7.36291ZM2.62473 15.8745H5.24945V7.25H2.62473V15.8745ZM5.625 4.43709C5.62995 4.66182 5.58996 4.88528 5.50738 5.09435C5.4248 5.30342 5.30129 5.49389 5.1441 5.65457C4.98691 5.81526 4.79921 5.94293 4.59201 6.0301C4.38481 6.11726 4.16229 6.16216 3.9375 6.16216C3.71271 6.16216 3.49019 6.11726 3.28299 6.0301C3.07579 5.94293 2.88809 5.81526 2.7309 5.65457C2.57371 5.49389 2.4502 5.30342 2.36762 5.09435C2.28504 4.88528 2.24505 4.66182 2.25 4.43709C2.25971 3.99597 2.44177 3.57619 2.75718 3.26765C3.07259 2.95911 3.49627 2.78634 3.9375 2.78634C4.37873 2.78634 4.80241 2.95911 5.11782 3.26765C5.43323 3.57619 5.61529 3.99597 5.625 4.43709Z" fill="white"/>
</svg>
