<svg width="18" height="22" viewBox="0 0 18 22" fill="none" xmlns="http://www.w3.org/2000/svg">
<path d="M9.19999 11.975C10.8154 11.975 12.125 10.6654 12.125 9.05C12.125 7.43457 10.8154 6.125 9.19999 6.125C7.58456 6.125 6.27499 7.43457 6.27499 9.05C6.27499 10.6654 7.58456 11.975 9.19999 11.975Z" stroke="#989898" stroke-width="1.75" stroke-linecap="round" stroke-linejoin="round"/>
<path d="M9.19999 1.25C7.13131 1.25 5.14735 2.07178 3.68456 3.53457C2.22178 4.99735 1.39999 6.98131 1.39999 9.05C1.39999 10.8947 1.79194 12.1018 2.86249 13.4375L9.19999 20.75L15.5375 13.4375C16.608 12.1018 17 10.8947 17 9.05C17 6.98131 16.1782 4.99735 14.7154 3.53457C13.2526 2.07178 11.2687 1.25 9.19999 1.25V1.25Z" stroke="#989898" stroke-width="1.75" stroke-linecap="round" stroke-linejoin="round"/>
</svg>
