<svg width="37" height="37" viewBox="0 0 37 37" fill="none" xmlns="http://www.w3.org/2000/svg">
<path fill-rule="evenodd" clip-rule="evenodd" d="M30.4537 32.2643C28.0006 31.578 25.4246 31.1662 22.9714 30.7544L20.8859 31.9895C24.0758 32.1273 27.2646 32.5387 30.0857 33.2253C31.0673 33.3624 31.0673 32.4017 30.4537 32.2643Z" fill="#589775"/>
<path fill-rule="evenodd" clip-rule="evenodd" d="M27.0194 12.9087C33.8885 11.6732 37.446 13.595 36.9552 17.7136C36.342 23.0674 27.6329 30.6168 17.4518 34.5985C7.27077 38.5797 -0.579911 37.4808 0.0336557 32.2645C0.278865 29.5192 2.60962 26.2245 6.28957 23.0674L6.53442 24.3024C3.95881 26.4986 2.48683 28.6951 2.36405 30.6168C1.87363 34.8729 6.77999 36.932 16.3475 33.2256C25.9157 29.5187 35.8516 21.6945 36.3416 17.4388C36.7104 14.419 33.8885 12.9087 28.0005 14.0072L27.0194 12.9087Z" fill="#3382C3"/>
<path fill-rule="evenodd" clip-rule="evenodd" d="M33.03 17.3018C31.3124 12.6343 19.5366 0.142571 17.6966 0.00516103C16.593 -0.131844 13.7715 2.47612 10.8275 5.77072L10.7051 10.4382L18.5554 2.61353C22.7258 7.55544 26.8969 14.0072 30.9448 17.8511C31.558 18.5369 33.398 18.1255 33.03 17.3018Z" fill="white"/>
<path fill-rule="evenodd" clip-rule="evenodd" d="M6.04367 5.35902C6.90244 4.80978 8.98763 3.98654 11.0732 3.84872C8.37443 2.33883 5.55325 1.65259 3.46806 2.61325C2.48687 3.16248 3.22249 7.41815 4.20369 13.4581C2.97728 15.105 1.99572 16.3409 1.62809 16.8897C0.8921 17.8508 2.8545 18.6745 4.69447 16.4779C5.30768 19.9095 5.92124 23.7534 6.41202 27.5972C6.53445 28.6953 7.14802 28.6953 7.88364 28.9701C6.77966 6.7315 4.93968 6.04526 6.04367 5.35902Z" fill="white"/>
<path fill-rule="evenodd" clip-rule="evenodd" d="M16.593 31.853C17.8198 31.4412 18.9238 30.8919 20.1502 30.3431C14.1398 29.5191 8.74235 29.6569 5.67597 29.9305C5.18555 30.0683 4.0812 31.7156 6.16639 32.1274C6.90238 32.2648 11.3183 31.853 16.593 31.853Z" fill="#589775"/>
<path d="M16.8156 20.2244C14.7407 20.419 14.2785 28.1572 14.0749 25.4396C13.8714 22.722 14.6427 19.111 16.7176 18.9164C18.7925 18.7218 19.6801 22.722 19.8836 25.4396C17.3572 28.9382 19.0174 19.315 16.8156 20.2244Z" fill="white"/>
<path d="M25.9205 21.9226C25.6061 24.7662 26.3534 25.915 25.4923 25.7958C24.6311 25.6765 24.1879 23.2747 24.5023 20.4312C24.8168 17.5876 25.7698 15.3791 26.6309 15.4984C27.4921 15.6177 26.235 19.0791 25.9205 21.9226Z" fill="white"/>
</svg>
