<svg width="58" height="56" viewBox="0 0 58 56" fill="none" xmlns="http://www.w3.org/2000/svg">
<path fill-rule="evenodd" clip-rule="evenodd" d="M47.7385 48.8272C43.893 47.8056 39.855 47.1925 36.0094 46.5793L32.7402 48.4181C37.7406 48.6233 42.7393 49.2358 47.1617 50.2581C48.7004 50.462 48.7004 49.0318 47.7385 48.8272Z" fill="#589775"/>
<path fill-rule="evenodd" clip-rule="evenodd" d="M42.3549 20.0113C53.1227 18.1719 58.6994 21.0329 57.9301 27.1647C56.9688 35.1352 43.3167 46.3747 27.3571 52.3025C11.3975 58.2297 -0.909054 56.5937 0.0527578 48.8278C0.437142 44.7405 4.09078 39.8356 9.85938 35.1352L10.2432 36.974C6.20574 40.2435 3.8983 43.5137 3.70582 46.3747C2.93706 52.711 10.6281 55.7766 25.6259 50.2586C40.6249 44.7399 56.2001 33.0913 56.9683 26.7555C57.5463 22.2598 53.1227 20.0113 43.893 21.6466L42.3549 20.0113Z" fill="#3382C3"/>
<path fill-rule="evenodd" clip-rule="evenodd" d="M51.7769 26.5521C49.0846 19.6032 30.625 1.00571 27.7407 0.801141C26.0107 0.597171 21.5877 4.47984 16.9729 9.38478L16.7809 16.3336L29.0869 4.68442C35.6243 12.0418 42.1628 21.6471 48.5083 27.3698C49.4695 28.3908 52.3538 27.7783 51.7769 26.5521Z" fill="#0C0E0F"/>
<path fill-rule="evenodd" clip-rule="evenodd" d="M9.47397 8.77203C10.8202 7.95434 14.0889 6.72871 17.3581 6.52353C13.1276 4.27564 8.70521 3.25398 5.43652 4.68418C3.89841 5.50187 5.05157 11.8376 6.58967 20.8298C4.66718 23.2817 3.12851 25.1216 2.55222 25.9387C1.3985 27.3695 4.47471 28.5958 7.35901 25.3256C8.32025 30.4345 9.28207 36.1572 10.0514 41.8798C10.2433 43.5146 11.2051 43.5146 12.3583 43.9237C10.6277 10.8154 7.74339 9.79369 9.47397 8.77203Z" fill="#0C0E0F"/>
<path fill-rule="evenodd" clip-rule="evenodd" d="M26.0108 48.2159C27.9339 47.6028 29.6644 46.7851 31.5869 45.968C22.1653 44.7412 13.7043 44.9463 8.89748 45.3537C8.12872 45.5588 6.39757 48.0113 9.66625 48.6244C10.82 48.829 17.7423 48.2159 26.0108 48.2159Z" fill="#589775"/>
<path d="M26.3595 33.7033C23.107 34.0084 22.3824 46.1386 22.0634 41.8785C21.7443 37.6185 22.9534 31.958 26.206 31.6529C29.4585 31.3478 30.8499 37.6185 31.169 41.8785C27.2086 47.3629 29.8111 32.2778 26.3595 33.7033Z" fill="#0C0E0F"/>
<path d="M40.6324 36.365C40.1395 40.8225 41.3109 42.6234 39.961 42.4364C38.6111 42.2495 37.9163 38.4845 38.4092 34.027C38.9021 29.5695 40.396 26.1076 41.746 26.2946C43.0959 26.4815 41.1253 31.9075 40.6324 36.365Z" fill="#0C0E0F"/>
</svg>
