<svg width="27" height="43" viewBox="0 0 27 43" fill="none" xmlns="http://www.w3.org/2000/svg">
<path d="M10.5469 8.4375L2.93317 16.0512C2.40574 16.5786 2.10938 17.2941 2.10938 18.0399V36.5625H13.3594V33.75C15.6894 33.75 17.5781 31.8612 17.5781 29.5312V8.4375H10.5469Z" fill="#F0915A"/>
<path d="M23.9062 27.4219H8.4375C6.88421 27.4219 5.625 26.1627 5.625 24.6094V2.8125C5.625 1.25921 6.88421 0 8.4375 0H23.9062C25.4595 0 26.7188 1.25921 26.7188 2.8125V24.6094C26.7188 26.1627 25.4595 27.4219 23.9062 27.4219Z" fill="#CD3232"/>
<path d="M21.7969 27.4219H8.4375C6.88421 27.4219 5.625 26.1627 5.625 24.6094V2.8125C5.625 1.25921 6.88421 0 8.4375 0H21.7969C23.3502 0 24.6094 1.25921 24.6094 2.8125V24.6094C24.6094 26.1627 23.3502 27.4219 21.7969 27.4219Z" fill="#FF4646"/>
<path d="M12.6562 0H8.4375V27.4219H12.6562V0Z" fill="#463C4B"/>
<path d="M2.93317 21.6762L9.55257 15.0568C10.1017 14.5077 10.9921 14.5077 11.5413 15.0568L11.7825 15.2981C13.43 16.9456 13.43 19.6168 11.7825 21.2643L9.14062 23.9063V29.5313C9.14062 31.8612 7.25186 33.75 4.92188 33.75H2.10938V23.665C2.10938 22.9191 2.40565 22.2037 2.93317 21.6762Z" fill="#FAB991"/>
<path d="M9.37503 15.2343C10.2164 16.0757 10.2164 17.4399 9.37503 18.2812C9.18088 18.4754 8.86606 18.4754 8.67191 18.2812L7.50006 17.1094L9.37503 15.2343Z" fill="#F0915A"/>
<path d="M15.4688 42.1875H0V38.6719C0 37.5069 0.944385 36.5625 2.10938 36.5625H13.3594C14.5244 36.5625 15.4688 37.5069 15.4688 38.6719V42.1875Z" fill="#463C4B"/>
<path d="M9.14062 38.6719H15.4688V42.1875H7.73438V40.0781C7.73438 39.3014 8.36394 38.6719 9.14062 38.6719Z" fill="#32283C"/>
<path d="M19.6875 7.73438C21.2408 7.73438 22.5 6.47518 22.5 4.92188C22.5 3.36857 21.2408 2.10938 19.6875 2.10938C18.1342 2.10938 16.875 3.36857 16.875 4.92188C16.875 6.47518 18.1342 7.73438 19.6875 7.73438Z" fill="#A5C3DC"/>
<path d="M19.6875 11.9531C21.2408 11.9531 22.5 10.6939 22.5 9.14062C22.5 7.58732 21.2408 6.32812 19.6875 6.32812C18.1342 6.32812 16.875 7.58732 16.875 9.14062C16.875 10.6939 18.1342 11.9531 19.6875 11.9531Z" fill="#E6E6EB"/>
</svg>
