<svg width="23" height="24" viewBox="0 0 23 24" fill="none" xmlns="http://www.w3.org/2000/svg">
<path d="M11.5 1.21875C5.54587 1.21875 0.71875 6.04552 0.71875 12C0.71875 17.9545 5.54587 22.7812 11.5 22.7812C17.4541 22.7812 22.2812 17.9541 22.2812 12C22.2812 6.04552 17.4541 1.21875 11.5 1.21875ZM14.7175 16.5562C13.9811 17.1858 12.9411 17.5002 11.5967 17.5002C10.2239 17.5002 9.14358 17.1901 8.35727 16.5702C7.57059 15.9495 7.17744 15.0975 7.17744 14.0125H9.25714C9.3247 14.489 9.45731 14.8448 9.65425 15.0809C10.0158 15.5104 10.6343 15.7246 11.5108 15.7246C12.0358 15.7246 12.4617 15.6685 12.7891 15.5546C13.4108 15.3375 13.7213 14.9347 13.7213 14.3453C13.7213 14.0014 13.5689 13.7347 13.2649 13.5457C12.9601 13.3617 12.4775 13.1989 11.817 13.058L10.6882 12.8104C9.57842 12.5646 8.81619 12.2986 8.40147 12.0111C7.69817 11.5299 7.34706 10.7778 7.34706 9.75427C7.34706 8.82025 7.69098 8.04472 8.37811 7.42695C9.06523 6.80883 10.0754 6.50012 11.4076 6.50012C12.5203 6.50012 13.4683 6.79122 14.2546 7.37377C15.0395 7.95631 15.4513 8.80192 15.4901 9.91023H13.3957C13.3573 9.28312 13.0769 8.8375 12.5548 8.573C12.2065 8.3987 11.7735 8.31102 11.2563 8.31102C10.6806 8.31102 10.2217 8.42422 9.8785 8.65063C9.5353 8.87703 9.36316 9.19292 9.36316 9.59866C9.36316 9.97133 9.53242 10.2495 9.87131 10.4331C10.0884 10.556 10.5502 10.6998 11.2567 10.8647L13.0866 11.2963C13.888 11.4847 14.4896 11.7373 14.89 12.0528C15.5113 12.5434 15.8222 13.2535 15.8222 14.1821C15.8222 15.1348 15.4546 15.9265 14.7175 16.5562Z" fill="#989898"/>
</svg>
