<svg width="21" height="17" viewBox="0 0 21 17" fill="none" xmlns="http://www.w3.org/2000/svg">
<path d="M21 2.01651C20.2277 2.35727 19.3981 2.58752 18.526 2.69159C19.4259 2.15539 20.0991 1.31147 20.4201 0.317296C19.5746 0.81738 18.6493 1.16939 17.6844 1.35801C17.0355 0.668066 16.176 0.210762 15.2393 0.057094C14.3027 -0.0965741 13.3413 0.0619913 12.5044 0.508172C11.6675 0.954353 11.002 1.66319 10.6111 2.52462C10.2203 3.38606 10.1259 4.35189 10.3428 5.27219C8.62963 5.18653 6.95372 4.74313 5.4238 3.97075C3.89389 3.19837 2.54416 2.11428 1.46221 0.78884C1.09227 1.42432 0.879547 2.16111 0.879547 2.94578C0.879135 3.65217 1.05382 4.34774 1.38811 4.97078C1.7224 5.59382 2.20595 6.12505 2.79587 6.51736C2.11172 6.49568 1.44267 6.31159 0.844402 5.98042V6.03568C0.844333 7.02642 1.18848 7.98667 1.81846 8.7535C2.44843 9.52033 3.32542 10.0465 4.30063 10.2427C3.66597 10.4138 3.00058 10.439 2.35471 10.3164C2.62985 11.1689 3.16581 11.9143 3.88755 12.4484C4.60929 12.9825 5.48068 13.2785 6.37972 13.2949C4.85354 14.4879 2.96871 15.1351 1.02845 15.1322C0.684753 15.1323 0.341346 15.1123 0 15.0724C1.96948 16.3334 4.2621 17.0026 6.60354 17C14.5296 17 18.8626 10.4629 18.8626 4.79328C18.8626 4.60908 18.858 4.42304 18.8497 4.23884C19.6925 3.63189 20.42 2.8803 20.9982 2.01927L21 2.01651Z" fill="white"/>
</svg>
