<svg width="18" height="18" viewBox="0 0 18 18" fill="none" xmlns="http://www.w3.org/2000/svg">
<path d="M17.6293 8.86138L9.49214 0.730111C9.43355 0.671407 9.36396 0.624833 9.28735 0.593056C9.21074 0.561279 9.12861 0.544922 9.04567 0.544922C8.96273 0.544922 8.8806 0.561279 8.80399 0.593056C8.72738 0.624833 8.65779 0.671407 8.5992 0.730111L0.462006 8.86138C0.224943 9.09844 0.0906067 9.42045 0.0906067 9.75629C0.0906067 10.4537 0.657583 11.0206 1.35494 11.0206H2.21232V16.8228C2.21232 17.1724 2.49482 17.4549 2.84449 17.4549H7.78133V13.0297H9.99392V17.4549H15.2469C15.5965 17.4549 15.879 17.1724 15.879 16.8228V11.0206H16.7364C17.0722 11.0206 17.3942 10.8883 17.6313 10.6492C18.1232 10.1553 18.1232 9.35526 17.6293 8.86138Z" fill="#989898"/>
</svg>
